<?xml version="1.0" encoding="UTF-8" standalone="no"?>
<svg width="194px" height="115px" viewBox="0 0 194 115" version="1.1" xmlns="http://www.w3.org/2000/svg" xmlns:xlink="http://www.w3.org/1999/xlink" xmlns:sketch="http://www.bohemiancoding.com/sketch/ns">
    <!-- Generator: Sketch 3.3.3 (12081) - http://www.bohemiancoding.com/sketch -->
    <title>Slice 1</title>
    <desc>Created with Sketch.</desc>
    <defs></defs>
    <g id="Page-1" stroke="none" stroke-width="1" fill="none" fill-rule="evenodd" sketch:type="MSPage">
        <path d="M171.668,108.191573 C171.276,109.257573 170.98,110.219573 170.569,111.126573 C170.197,111.954573 169.771,112.777573 169.237,113.498573 C168.613,114.342573 166.601,114.660573 165.683,114.259573 C165.393,114.131573 165.001,114.212573 164.66,114.245573 C164.178,114.289573 163.703,114.375573 163,114.478573 C163.736,113.343573 164.351,112.458573 164.894,111.533573 C165.252,110.930573 165.637,110.293573 165.776,109.625573 C166.087,108.150573 166.988,107.655573 168.457,108.346573 C168.13,109.262573 167.812,110.186573 167.463,111.097573 C167.311,111.484573 167.043,111.826573 166.907,112.217573 C166.861,112.350573 167.06,112.566573 167.147,112.742573 C167.288,112.649573 167.481,112.588573 167.557,112.458573 C167.971,111.724573 168.386,110.986573 168.741,110.222573 C168.994,109.675573 169.051,109.019573 169.375,108.529573 C169.891,107.749573 170.702,108.011573 171.668,108.191573" id="Fill-445" fill="#163044" sketch:type="MSShapeGroup"></path>
        <path d="M159.477667,75.756 C159.310667,74.224 159.077667,72.733 159.004667,71.233 C158.932667,69.776 159.696667,68.82 161.089667,68.312 C161.280667,68.245 161.445667,68.119 161.650667,68 C161.711667,68.158 161.795667,68.275 161.765667,68.329 C160.730667,70.252 161.364667,72.313 161.265667,74.311 C161.257667,74.471 161.274667,74.633 161.263667,74.795 C161.210667,75.58 160.698667,75.9 159.477667,75.756" id="Fill-446" fill="#163044" sketch:type="MSShapeGroup"></path>
        <path d="M184,79.9132501 C185.662,78.6382501 187.552,78.9882501 189.282,79.2552501 C190.494,79.4442501 191.548,80.4032501 191.832,81.9802501 C191.467,81.9602501 191.063,82.0592501 190.822,81.9062501 C189.373,80.9912501 187.765,81.3022501 186.24,81.3782501 C185.029,81.4402501 184.494,80.8642501 184,79.9132501" id="Fill-447" fill="#163044" sketch:type="MSShapeGroup"></path>
        <path d="M192.21072,86.1104186 C191.86472,85.8774186 191.54472,85.6024186 191.17472,85.4164186 C189.80572,84.7354186 188.42872,83.9934186 186.82672,84.2184186 C185.88572,84.3494186 185.50472,83.7124186 185.10172,83.1254186 C184.77972,82.6594186 185.26472,81.9644186 185.95972,82.0014186 C186.85672,82.0484186 187.75272,82.2284186 188.63572,82.4244186 C189.31572,82.5754186 189.97472,82.8504186 190.64972,83.0514186 C191.38372,83.2714186 191.81872,83.6984186 191.96372,84.4934186 C192.04272,84.9444186 192.34972,85.3544186 192.55372,85.7834186 C192.43872,85.8914186 192.32672,86.0014186 192.21072,86.1104186" id="Fill-448" fill="#163044" sketch:type="MSShapeGroup"></path>
        <path d="M193.021,93.8019655 C192.086,92.9219655 191.357,92.1159655 190.506,91.4709655 C189.638,90.8129655 188.652,90.3089655 187.717,89.7359655 C187.59,89.6609655 187.399,89.5959655 187.357,89.4829655 C187.211,89.0739655 187.114,88.6449655 187,88.2229655 C187.65,88.1659655 188.454,87.8359655 188.906,88.1029655 C189.985,88.7409655 191.133,89.2499655 192.097,90.1829655 C193.24,91.2939655 193.045,92.4239655 193.021,93.8019655" id="Fill-449" fill="#163044" sketch:type="MSShapeGroup"></path>
        <path d="M174,84.3290128 C175.27,83.6190128 176.507,83.0040128 177.967,83.0000128 C179.759,82.9960128 181.007,83.9280128 181.513,85.6510128 C181.572,85.8500128 181.702,86.0270128 181.849,86.3020128 C181.57,86.3340128 181.269,86.4570128 181.17,86.3640128 C179.577,84.9200128 177.628,85.2370128 175.752,85.2850128 C174.994,85.3040128 174.374,85.2290128 174,84.3290128" id="Fill-450" fill="#163044" sketch:type="MSShapeGroup"></path>
        <path d="M174.005807,72.7021703 C173.924807,71.2841703 174.705807,70.5741703 175.431807,69.9581703 C176.303807,69.2221703 177.313807,68.6361703 178.327807,68.0991703 C178.667807,67.9211703 179.217807,68.0151703 179.630807,68.1291703 C180.058807,68.2481703 180.436807,68.5461703 181.015807,68.8591703 C180.815807,69.0951703 180.632807,69.5231703 180.371807,69.5741703 C178.564807,69.9271703 177.356807,71.0981703 176.107807,72.3241703 C175.715807,72.7081703 174.813807,72.5751703 174.005807,72.7021703" id="Fill-451" fill="#163044" sketch:type="MSShapeGroup"></path>
        <path d="M180.344662,82.256963 C179.283662,82.256963 178.292662,82.292963 177.304662,82.247963 C176.217662,82.201963 175.389662,82.704963 174.524662,83.274963 C174.136662,83.529963 173.520662,83.441963 173.011662,83.507963 C172.818662,82.199963 175.063662,80.131963 176.600662,80.018963 C178.735662,79.856963 180.301662,80.743963 180.344662,82.256963" id="Fill-452" fill="#163044" sketch:type="MSShapeGroup"></path>
        <path d="M165.721971,67.289 C164.482971,68.985 164.070971,70.883 164.165971,72.949 C164.188971,73.426 163.854971,73.967 163.552971,74.386 C163.433971,74.556 162.843971,74.628 162.681971,74.49 C162.368971,74.222 162.029971,73.78 162.021971,73.405 C162.007971,72.343 161.898971,71.308 162.339971,70.209 C162.689971,69.347 162.851971,68.443 163.654971,67.91 C164.232971,67.529 164.909971,67.296 165.539971,67 C165.599971,67.096 165.661971,67.192 165.721971,67.289" id="Fill-453" fill="#163044" sketch:type="MSShapeGroup"></path>
        <path d="M189.575278,101.637843 C188.942278,99.2718427 187.764278,97.5838427 186.167278,96.1008427 C185.825278,95.7858427 186.105278,94.7868427 186.156278,94.1128427 C186.162278,94.0648427 186.803278,93.9298427 186.911278,94.0458427 C188.100278,95.3578427 189.362278,96.6348427 190.340278,98.0988427 C190.680278,98.6098427 190.337278,99.6168427 190.211278,100.380843 C190.150278,100.746843 189.870278,101.078843 189.575278,101.637843" id="Fill-454" fill="#163044" sketch:type="MSShapeGroup"></path>
        <path d="M152.953032,76 C153.224032,76.676 153.423032,77.389 153.781032,78.014 C154.384032,79.069 154.931032,80.236 155.799032,81.034 C156.546032,81.721 156.805032,82.317 156.562032,83.372 C155.063032,83.44 154.121032,82.369 153.336032,81.425 C151.677032,79.423 151.579032,78.117 152.953032,76" id="Fill-455" fill="#163044" sketch:type="MSShapeGroup"></path>
        <path d="M191.037962,97.9466786 C189.779962,96.1046786 188.708962,94.3416786 186.762962,93.3016786 C186.386962,93.0996786 186.078962,92.5056786 186.011962,92.0526786 C185.887962,91.2156786 186.752962,90.6976786 187.451962,91.1936786 C188.358962,91.8356786 189.128962,92.6686786 190.039962,93.3016786 C191.134962,94.0656786 191.286962,95.1076786 191.190962,96.2826786 C191.145962,96.8386786 191.088962,97.3926786 191.037962,97.9466786" id="Fill-456" fill="#163044" sketch:type="MSShapeGroup"></path>
        <path d="M169.905437,66.1109927 C169.200437,67.0789927 168.417437,67.9449927 167.888437,68.9439927 C167.478437,69.7199927 167.281437,70.6529927 167.184437,71.5379927 C167.115437,72.1959927 166.807437,72.6219927 166.314437,72.8279927 C165.995437,72.9589927 165.361437,72.8789927 165.177437,72.6469927 C164.954437,72.3649927 164.985437,71.8149927 165.037437,71.3999927 C165.123437,70.7829927 165.395437,70.1909927 165.463437,69.5729927 C165.662437,67.7629927 167.754437,65.8799927 169.494437,66.0059927 C169.642437,66.0149927 169.782437,66.0759927 169.905437,66.1109927" id="Fill-457" fill="#163044" sketch:type="MSShapeGroup"></path>
        <path d="M184.910896,108.098747 C184.853896,107.740747 184.784896,107.508747 184.787896,107.280747 C184.807896,105.363747 184.247896,103.633747 183.147896,102.066747 C182.803896,101.579747 183.095896,100.279747 183.653896,100.044747 C183.900896,99.9367466 184.464896,100.035747 184.570896,100.218747 C185.078896,101.124747 185.486896,102.085747 185.919896,103.034747 C186.111896,103.450747 186.358896,103.862747 186.441896,104.303747 C186.716896,105.803747 186.068896,106.968747 184.910896,108.098747" id="Fill-458" fill="#163044" sketch:type="MSShapeGroup"></path>
        <path d="M163,103.49038 C164.949,102.77838 165.73,100.99338 166.878,99.5593801 C166.953,99.4663801 166.957,99.3173801 166.985,99.1923801 C167.263,97.9693801 167.848,97.7043801 169.098,98.3183801 C168.768,99.3683801 168.425,100.43238 168.098,101.50038 C167.539,103.32638 164.772,104.46238 163,103.49038" id="Fill-459" fill="#163044" sketch:type="MSShapeGroup"></path>
        <path d="M188.003655,74.5721921 C187.852655,74.6391921 187.727655,74.7351921 187.590655,74.7541921 C186.253655,74.9461921 184.907655,75.0881921 183.582655,75.3301921 C183.073655,75.4241921 182.556655,75.6721921 182.138655,75.9771921 C181.620655,76.3551921 181.222655,76.5141921 180.745655,75.9521921 C180.526655,75.6941921 179.965655,75.4441921 180.001655,75.3021921 C180.094655,74.9421921 180.366655,74.4751921 180.682655,74.3551921 C182.001655,73.8551921 183.339655,73.2671921 184.717655,73.0891921 C186.527655,72.8521921 186.548655,73.0051921 188.003655,74.5721921" id="Fill-460" fill="#163044" sketch:type="MSShapeGroup"></path>
        <path d="M133.249,108.068534 C133.294,108.060534 133.547,108.029534 133.803,108.016534 C135.161,107.943534 135.236,108.068534 134.698,109.296534 C134.263,110.295534 133.861,111.308534 133.418,112.301534 C132.857,113.560534 131.3,114.454534 130,114.232534 C131.051,112.238534 132.095,110.254534 133.249,108.068534" id="Fill-461" fill="#163044" sketch:type="MSShapeGroup"></path>
        <path d="M161.000554,89.039 C161.630554,89.231 162.151554,89.394 162.672554,89.548 C162.881554,89.613 163.107554,89.736 163.304554,89.706 C164.571554,89.503 165.847554,89.327 166.777554,88.265 C166.931554,88.088 167.308554,88.1 167.667554,88 C166.980554,91.306 165.140554,92.329 163.352554,92.031 C162.417554,91.876 160.967554,90.247 161.000554,89.039" id="Fill-462" fill="#163044" sketch:type="MSShapeGroup"></path>
        <path d="M175.822268,101.526865 C175.822268,100.298865 175.906268,99.136865 175.798268,97.993865 C175.722268,97.175865 175.483268,96.338865 175.149268,95.587865 C174.860268,94.948865 175.007268,94.420865 175.449268,94.129865 C176.088268,93.704865 176.635268,94.428865 176.780268,94.784865 C177.365268,96.196865 178.325268,97.507865 178.092268,99.188865 C177.949268,100.219865 176.891268,101.454865 175.822268,101.526865" id="Fill-463" fill="#163044" sketch:type="MSShapeGroup"></path>
        <path d="M120,114.214545 C120.818,112.805545 121.662,111.400545 122.447,109.964545 C122.664,109.566545 122.581,108.986545 122.827,108.627545 C123.421,107.775545 124.292,107.974545 125.167,108.171545 C124.828,110.273545 123.823,111.989545 122.548,113.560545 C121.888,114.376545 120.994,114.557545 120,114.214545" id="Fill-464" fill="#163044" sketch:type="MSShapeGroup"></path>
        <path d="M166.085,98.4134361 C165.285,99.5484361 164.546,100.700436 163.702,101.761436 C163.026,102.612436 160.332,103.088436 159.445,102.568436 C159.227,102.437436 159.159,102.058436 159,101.755436 C161.212,101.278436 162.721,100.027436 163.868,98.2564361 C164.116,97.8694361 165.165,97.9194361 166.085,98.4134361" id="Fill-465" fill="#163044" sketch:type="MSShapeGroup"></path>
        <path d="M165.807008,85.765 C163.943008,85.985 161.861008,84.397 161.237008,83.162 C160.610008,81.925 161.279008,80.17 162.632008,79 C162.950008,80.277 163.171008,81.594 163.621008,82.83 C164.026008,83.942 165.646008,84.278 165.807008,85.765" id="Fill-466" fill="#163044" sketch:type="MSShapeGroup"></path>
        <path d="M160,114.125 C160.659,113.114 161.344,112.222 161.857,111.239 C162.382,110.236 162.741,109.145 163.212,108 L165.385,108 C164.863,109.972 164.066,111.694 162.793,113.155 C162.159,113.883 161.389,114.541 160,114.125" id="Fill-467" fill="#163044" sketch:type="MSShapeGroup"></path>
        <path d="M190.162,78.3114277 C189.635,78.2534277 189.12,78.3204277 188.733,78.1294277 C187.708,77.6294277 186.786,77.6614277 185.742,78.1344277 C185.034,78.4574277 184.16,78.6044277 183.384,78.5344277 C182.913,78.4884277 182.497,77.8814277 182,77.4834277 C182.887,76.5034277 184.014,76.2894277 185.091,76.0664277 C185.831,75.9154277 186.628,76.0784277 187.391,76.0134277 C188.971,75.8784277 189.59,76.8734277 190.162,78.3114277" id="Fill-468" fill="#163044" sketch:type="MSShapeGroup"></path>
        <path d="M170.047496,83.0383269 C169.755496,81.2093269 170.859496,80.0963269 171.999496,78.9473269 C173.407496,77.5293269 174.827496,77.8783269 176.415496,78.8493269 C176.078496,79.1033269 175.761496,79.5313269 175.382496,79.5923269 C173.657496,79.8803269 172.747496,81.1973269 171.697496,82.3473269 C171.278496,82.8093269 170.944496,83.3973269 170.047496,83.0383269" id="Fill-469" fill="#163044" sketch:type="MSShapeGroup"></path>
        <path d="M171.05839,72.1002485 C170.74139,70.6612485 171.78939,69.8152485 172.41539,68.8432485 C172.76539,68.3052485 173.46139,68.0052485 173.94939,67.5432485 C174.79539,66.7332485 175.80939,67.0652485 176.77039,67.0782485 C176.96039,67.0802485 177.14239,67.3182485 177.32539,67.4512485 C177.17039,67.6702485 177.06339,67.9822485 176.85439,68.0882485 C175.32039,68.8602485 173.94939,69.7632485 173.22639,71.4362485 C172.87139,72.2552485 172.40639,72.3472485 171.05839,72.1002485" id="Fill-470" fill="#163044" sketch:type="MSShapeGroup"></path>
        <path d="M150,114.047804 C150.17,113.786804 150.321,113.513804 150.508,113.270804 C151.399,112.113804 152.212,110.915804 152.463,109.443804 C152.686,108.118804 153.44,107.736804 155.363,108.170804 C154.805,109.322804 154.177,110.415804 153.74,111.577804 C153.343,112.628804 152.696,113.413804 151.763,113.953804 C151.311,114.213804 150.746,114.279804 150.232,114.431804 C150.155,114.304804 150.081,114.175804 150,114.047804" id="Fill-471" fill="#163044" sketch:type="MSShapeGroup"></path>
        <path d="M127,114.178 C128.261,112.322 129.543,110.488 130.036,108.106 C130.651,108.078 131.334,108.047 132.376,108 C132.003,109.095 131.788,110.012 131.382,110.839 C130.979,111.661 130.369,112.379 129.887,113.169 C129.322,114.101 128.18,114.539 127,114.178" id="Fill-472" fill="#163044" sketch:type="MSShapeGroup"></path>
        <path d="M150.128803,88 C151.280803,89.004 152.407803,89.701 153.874803,89.802 C154.796803,89.863 155.723803,90.095 156.598803,90.395 C156.896803,90.497 157.159803,91.034 157.196803,91.399 C157.217803,91.579 156.699803,91.973 156.403803,91.995 C155.447803,92.07 154.441803,92.178 153.529803,91.968 C152.536803,91.738 151.472803,91.338 150.731803,90.681 C150.224803,90.235 150.217803,89.223 150.004803,88.458 C149.978803,88.36 150.063803,88.227 150.128803,88" id="Fill-473" fill="#163044" sketch:type="MSShapeGroup"></path>
        <path d="M154.44526,73.074 C154.67926,73.993 154.83526,74.941 155.16726,75.821 C155.49526,76.689 156.02726,77.477 156.41926,78.322 C156.62226,78.761 156.80326,79.239 156.84926,79.714 C156.87126,79.971 156.61126,80.462 156.43526,80.484 C156.07426,80.527 155.49426,80.448 155.33426,80.203 C154.56226,79.019 153.49026,77.99 153.36126,76.437 C153.31626,75.841 152.59226,75.348 153.32926,74.646 C153.74426,74.247 153.87426,73.557 154.13726,73 C154.24026,73.025 154.34426,73.048 154.44526,73.074" id="Fill-474" fill="#163044" sketch:type="MSShapeGroup"></path>
        <path d="M123,114.198 C123.708,112.826 124.43,111.478 125.099,110.112 C125.362,109.575 125.366,108.781 125.77,108.474 C126.248,108.108 127.027,108.142 127.676,108 C127.712,108.556 127.93,109.182 127.741,109.646 C127.336,110.648 126.665,111.54 126.206,112.524 C125.632,113.756 124.242,114.489 123,114.198" id="Fill-475" fill="#163044" sketch:type="MSShapeGroup"></path>
        <path d="M181.549,95.5043875 C180.519,94.2633875 179.767,93.2093875 178.862,92.3073875 C177.986,91.4343875 176.953,90.7163875 176,89.9363875 C176.704,88.7953875 176.706,88.7933875 177.914,89.4153875 C178.672,89.8083875 179.41,90.2363875 180.177,90.6103875 C181.387,91.2023875 181.807,92.1923875 181.702,93.4753875 C181.651,94.0643875 181.612,94.6563875 181.549,95.5043875" id="Fill-476" fill="#163044" sketch:type="MSShapeGroup"></path>
        <path d="M182.152228,90.8330618 C181.472228,89.7120618 180.432228,89.1980618 179.354228,88.7650618 C178.452228,88.4030618 177.495228,88.1710618 176.603228,87.7810618 C176.311228,87.6540618 175.990228,87.1990618 176.000228,86.9070618 C176.010228,86.6330618 176.429228,86.3580618 176.698228,86.1210618 C176.806228,86.0300618 177.018228,85.9740618 177.150228,86.0120618 C178.784228,86.4800618 180.603228,86.4050618 181.845228,87.9540618 C182.623228,88.9280618 182.283228,89.8470618 182.152228,90.8330618" id="Fill-477" fill="#163044" sketch:type="MSShapeGroup"></path>
        <path d="M185.960768,97 C186.763768,98.043 187.681768,98.951 188.244768,100.043 C188.833768,101.194 189.713768,102.469 188.570768,103.846 C188.419768,104.021 188.419768,104.323 188.267768,104.871 C187.888768,104.431 187.556768,104.176 187.407768,103.844 C187.148768,103.261 187.053768,102.605 186.793768,102.021 C186.422768,101.184 186.035768,100.336 185.525768,99.579 C184.761768,98.446 184.767768,97.993 185.960768,97" id="Fill-478" fill="#163044" sketch:type="MSShapeGroup"></path>
        <path d="M178.14,106.10356 C178.14,107.65056 178.181,109.12556 178.129,110.59356 C178.089,111.62856 176.648,113.21156 175.605,113.45656 C175.354,113.51556 175.074,113.43856 175,113.43556 C175.317,112.34256 175.613,111.32156 175.905,110.29856 C176.076,109.70256 176.304,109.11956 176.396,108.51356 C176.476,108.00956 176.335,107.47856 176.398,106.97456 C176.526,105.97056 177.203,105.87356 178.14,106.10356" id="Fill-479" fill="#163044" sketch:type="MSShapeGroup"></path>
        <path d="M163.563,97.9556679 C162.758,98.6586679 162.031,99.3576679 161.244,99.9746679 C159.571,101.283668 157.816,101.711668 156,99.6006679 C156.17,99.5156679 156.329,99.3666679 156.48,99.3726679 C158.421,99.4456679 159.95,98.4746679 161.466,97.4576679 C162.496,96.7676679 162.655,96.7996679 163.563,97.9556679" id="Fill-480" fill="#163044" sketch:type="MSShapeGroup"></path>
        <path d="M156.251626,89.234 C155.447626,89.048 154.640626,88.893 153.852626,88.67 C153.183626,88.478 152.536626,88.193 151.868626,87.975 C150.346626,87.469 149.559626,85.531 150.255626,84 C150.962626,84.627 151.630626,85.311 152.397626,85.866 C152.964626,86.277 153.625626,86.649 154.300626,86.808 C155.616626,87.123 156.479626,87.957 156.251626,89.234" id="Fill-481" fill="#163044" sketch:type="MSShapeGroup"></path>
        <path d="M138.189,108.299286 C137.435,110.243286 136.817,112.288286 135.182,113.707286 C134.694,114.134286 133.915,114.222286 133.264,114.465286 L133,114.222286 C133.159,113.910286 133.274,113.560286 133.483,113.286286 C134.4,112.094286 135.178,110.844286 135.499,109.339286 C135.74,108.196286 136.562,107.601286 138.189,108.299286" id="Fill-482" fill="#163044" sketch:type="MSShapeGroup"></path>
        <path d="M175.151,107.024824 C174.959,108.054824 174.759,109.079824 174.574,110.109824 C174.511,110.452824 174.451,110.798824 174.422,111.146824 C174.298,112.474824 172.628,114.343824 171,113.698824 C171.209,113.235824 171.351,112.734824 171.632,112.328824 C172.416,111.188824 172.803,109.965824 172.775,108.565824 C172.755,107.672824 173.941,106.844824 175.151,107.024824" id="Fill-483" fill="#163044" sketch:type="MSShapeGroup"></path>
        <path d="M184.614065,72.0573645 C184.333065,72.2713645 184.054065,72.6633645 183.769065,72.6683645 C181.930065,72.6933645 180.309065,73.2753645 178.985065,74.5213645 C178.238065,75.2243645 177.735065,74.3883645 177.129065,74.4643645 C176.614065,73.2243645 177.771065,72.7253645 178.304065,72.4173645 C179.471065,71.7453645 180.657065,70.7813645 182.171065,71.0443645 C182.951065,71.1763645 183.703065,71.4743645 184.465065,71.6963645 C184.515065,71.8153645 184.566065,71.9393645 184.614065,72.0573645" id="Fill-484" fill="#163044" sketch:type="MSShapeGroup"></path>
        <path d="M167.34986,77.0146842 C167.02486,78.1066842 166.59286,79.1146842 166.45386,80.1606842 C166.31286,81.1956842 166.48386,82.2696842 166.48786,83.3276842 C166.48986,83.6536842 166.40286,83.9826842 166.34986,84.3816842 C164.46586,82.8946842 163.51886,80.3136842 164.24386,78.8616842 C164.70186,77.9336842 166.67686,76.8616842 167.34986,77.0146842" id="Fill-485" fill="#163044" sketch:type="MSShapeGroup"></path>
        <path d="M171,103.172837 C172.384,101.483837 172.21,99.4948373 172.196,97.5258373 C172.192,97.1338373 172.303,96.6608373 172.538,96.3638373 C172.99,95.7768373 173.633,95.9258373 173.844,96.6258373 C174.055,97.3478373 174.359,98.0808373 174.363,98.8098373 C174.373,100.500837 174.101,102.157837 172.484,103.143837 C172.118,103.371837 171.586,103.329837 171.129,103.413837 L171,103.172837" id="Fill-486" fill="#163044" sketch:type="MSShapeGroup"></path>
        <path d="M192.125295,90.1974579 C191.104295,88.9894579 189.990295,88.1204579 188.540295,87.7444579 C187.981295,87.6004579 187.405295,87.4494579 186.899295,87.1824579 C186.548295,86.9974579 186.157295,86.6554579 186.053295,86.3024579 C185.941295,85.9314579 186.005295,85.2654579 186.250295,85.0904579 C186.517295,84.8974579 187.102295,85.0544579 187.513295,85.1804579 C188.393295,85.4484579 189.230295,85.8404579 190.106295,86.1004579 C191.759295,86.5904579 192.728295,88.4094579 192.125295,90.1974579" id="Fill-487" fill="#163044" sketch:type="MSShapeGroup"></path>
        <path d="M176,92.0132134 C177.187,91.8732134 178.91,92.8682134 179.438,93.9312134 C180.256,95.5862134 180.638,97.2482134 179.189,99.0262134 C178.902,98.5382134 178.51,98.1702134 178.479,97.7682134 C178.338,96.0122134 177.564,94.6582134 176.246,93.5092134 C175.964,93.2642134 176.075,92.5652134 176,92.0132134" id="Fill-488" fill="#163044" sketch:type="MSShapeGroup"></path>
        <path d="M168.024919,83.4504796 C166.538919,81.7774796 166.745919,79.3624796 168.148919,77.7664796 C168.851919,76.9674796 170.910919,76.7134796 172.165919,77.3894796 C170.563919,77.6914796 170.092919,79.0414796 169.310919,80.0544796 C168.950919,80.5204796 168.835919,81.1814796 168.620919,81.7574796 C168.415919,82.3174796 168.224919,82.8854796 168.024919,83.4504796" id="Fill-489" fill="#163044" sketch:type="MSShapeGroup"></path>
        <path d="M140,114.175054 C140.694,112.781054 141.408,111.361054 142.104,109.933054 C142.319,109.494054 142.416,108.988054 142.686,108.589054 C142.87,108.320054 143.241,108.066054 143.557,108.021054 C143.965,107.969054 144.649,108.004054 144.768,108.232054 C144.949,108.589054 144.9,109.211054 144.699,109.593054 C144.04,110.874054 143.259,112.092054 142.549,113.344054 C142.203,113.956054 140.728,114.399054 140,114.175054" id="Fill-490" fill="#163044" sketch:type="MSShapeGroup"></path>
        <path d="M160.29858,83 C160.69958,84.753 162.12958,85.553 163.46758,86.381 C163.85358,86.621 164.47858,86.451 164.98258,86.535 C165.22258,86.574 165.43658,86.769 165.65858,86.895 C165.52458,87.128 165.43958,87.409 165.25258,87.585 C164.09758,88.677 161.16158,88.306 160.21458,86.863 C160.14458,86.757 160.01358,86.652 160.00958,86.546 C159.99658,85.383 160.00058,84.218 160.00058,83.056 C160.09958,83.036 160.19958,83.019 160.29858,83" id="Fill-491" fill="#163044" sketch:type="MSShapeGroup"></path>
        <path d="M152.005939,108.553104 C151.790939,109.092104 151.673939,109.629104 151.388939,110.057104 C150.643939,111.181104 150.363939,112.623104 149.160939,113.425104 C148.650939,113.768104 148.072939,114.014104 147.502939,114.258104 C147.388939,114.307104 147.106939,114.180104 147.037939,114.059104 C146.965939,113.932104 147.003939,113.674104 147.088939,113.535104 C147.724939,112.479104 148.417939,111.455104 149.032939,110.385104 C149.337939,109.850104 149.526939,109.247104 149.745939,108.663104 C149.947939,108.135104 151.432939,107.766104 151.846939,108.174104 C151.947939,108.270104 151.965939,108.451104 152.005939,108.553104" id="Fill-492" fill="#163044" sketch:type="MSShapeGroup"></path>
        <path d="M153,114.208481 C154.3,112.482481 155.336,110.825481 155.937,108.907481 C156.055,108.525481 156.595,108.182481 157.017,108.024481 C157.283,107.922481 157.975,108.163481 157.987,108.301481 C158.035,108.764481 157.964,109.294481 157.761,109.712481 C157.187,110.877481 156.571,112.029481 155.89,113.135481 C155.269,114.142481 154.28,114.380481 153,114.208481" id="Fill-493" fill="#163044" sketch:type="MSShapeGroup"></path>
        <path d="M161.083277,95.6740667 C160.082277,96.9310667 158.964277,97.6020667 157.512277,97.7640667 C156.618277,97.8620667 155.700277,98.2090667 154.860277,97.7410667 C154.187277,97.3640667 153.609277,96.8030667 153.020277,96.2890667 C152.952277,96.2290667 153.075277,95.9480667 153.097277,95.8520667 C154.717277,95.9820667 156.260277,96.4170667 157.776277,95.6000667 C158.295277,95.3210667 158.879277,95.0030667 159.434277,95.0000667 C159.936277,94.9940667 160.443277,95.3940667 161.083277,95.6740667" id="Fill-494" fill="#163044" sketch:type="MSShapeGroup"></path>
        <path d="M181,103.315 C181.069,103.22 181.21,102.986 181.394,102.785 C181.652,102.51 181.942,102.26 182.219,102 C182.502,102.302 182.932,102.561 183.047,102.918 C183.509,104.414 183.83,105.923 183.801,107.532 C183.781,108.8 182.962,109.328 181.995,110.023 C181.995,108.896 182.121,107.751 181.959,106.648 C181.801,105.549 181.351,104.491 181,103.315" id="Fill-495" fill="#163044" sketch:type="MSShapeGroup"></path>
        <path d="M137,114.276407 C137.659,113.247407 138.256,112.394407 138.759,111.490407 C139.148,110.793407 139.378,110.004407 139.759,109.298407 C140.007,108.837407 140.328,108.343407 140.75,108.073407 C141.01,107.903407 141.842,108.065407 141.869,108.189407 C141.975,108.728407 142.066,109.403407 141.831,109.858407 C141.225,111.028407 140.474,112.126407 139.724,113.211407 C139.104,114.105407 138.174,114.332407 137,114.276407" id="Fill-496" fill="#163044" sketch:type="MSShapeGroup"></path>
        <path d="M113.248,108.068534 C113.293,108.060534 113.544,108.029534 113.8,108.016534 C115.155,107.943534 115.236,108.068534 114.695,109.296534 C114.258,110.295534 113.859,111.308534 113.417,112.301534 C112.857,113.560534 111.299,114.454534 110,114.232534 C111.05,112.238534 112.096,110.254534 113.248,108.068534" id="Fill-497" fill="#163044" sketch:type="MSShapeGroup"></path>
        <path d="M100,114.214545 C100.813,112.805545 101.66,111.400545 102.444,109.964545 C102.66,109.566545 102.58,108.986545 102.827,108.627545 C103.419,107.775545 104.291,107.974545 105.165,108.171545 C104.827,110.273545 103.821,111.989545 102.547,113.560545 C101.881,114.376545 100.992,114.557545 100,114.214545" id="Fill-498" fill="#163044" sketch:type="MSShapeGroup"></path>
        <path d="M106,114.178 C107.261,112.322 108.545,110.488 109.036,108.106 C109.654,108.078 110.336,108.047 111.376,108 C111.003,109.095 110.786,110.012 110.384,110.839 C109.982,111.661 109.369,112.379 108.889,113.169 C108.325,114.101 107.179,114.539 106,114.178" id="Fill-499" fill="#163044" sketch:type="MSShapeGroup"></path>
        <path d="M103,114.198 C103.71,112.826 104.428,111.478 105.098,110.112 C105.363,109.575 105.367,108.781 105.769,108.474 C106.247,108.108 107.028,108.142 107.676,108 C107.711,108.556 107.93,109.182 107.742,109.646 C107.338,110.648 106.665,111.54 106.205,112.524 C105.631,113.756 104.24,114.489 103,114.198" id="Fill-500" fill="#163044" sketch:type="MSShapeGroup"></path>
        <path d="M118.185,108.299286 C117.435,110.243286 116.818,112.288286 115.182,113.707286 C114.691,114.134286 113.91,114.222286 113.262,114.465286 L113,114.222286 C113.158,113.910286 113.272,113.560286 113.482,113.286286 C114.397,112.094286 115.176,110.844286 115.499,109.339286 C115.739,108.196286 116.559,107.601286 118.185,108.299286" id="Fill-501" fill="#163044" sketch:type="MSShapeGroup"></path>
        <path d="M116,114.276407 C116.656,113.247407 117.257,112.394407 117.758,111.490407 C118.15,110.793407 118.38,110.004407 118.76,109.298407 C119.008,108.837407 119.328,108.343407 119.752,108.073407 C120.011,107.903407 120.843,108.065407 120.867,108.189407 C120.978,108.728407 121.064,109.403407 120.831,109.858407 C120.224,111.028407 119.477,112.126407 118.725,113.211407 C118.106,114.105407 117.175,114.332407 116,114.276407" id="Fill-502" fill="#163044" sketch:type="MSShapeGroup"></path>
        <path d="M173.259626,66.4060306 C171.579626,67.6940306 170.452626,69.3580306 169.660626,71.2990306 C169.535626,71.6060306 168.846626,71.7290306 168.396626,71.8160306 C168.317626,71.8310306 167.983626,71.2520306 168.000626,70.9600306 C168.110626,69.0380306 169.051626,67.4360306 170.476626,66.2970306 C171.069626,65.8210306 172.255626,66.0790306 173.171626,66.0050306 C173.200626,66.1390306 173.229626,66.2710306 173.259626,66.4060306" id="Fill-503" fill="#163044" sketch:type="MSShapeGroup"></path>
        <path d="M143,114.443739 C144.386,112.453739 145.543,110.705739 146.075,108.633739 C146.197,108.152739 147.25,107.783739 147.885,108.145739 C148.132,108.287739 148.297,109.028739 148.147,109.322739 C147.5,110.611739 146.789,111.886739 145.965,113.073739 C145.337,113.984739 144.335,114.335739 143,114.443739" id="Fill-504" fill="#163044" sketch:type="MSShapeGroup"></path>
        <path d="M178.062857,111.789845 C178.062857,111.388845 177.904857,110.882845 178.089857,110.605845 C178.879857,109.410845 178.463857,108.115845 178.510857,106.867845 C178.518857,106.618845 178.310857,106.352845 178.180857,106.108845 C177.803857,105.406845 178.091857,104.402845 178.786857,104.056845 C179.281857,103.809845 180.168857,104.402845 180.205857,105.157845 C180.282857,106.756845 180.439857,108.396845 180.162857,109.949845 C180.027857,110.696845 178.989857,111.286845 178.364857,111.946845 C178.261857,111.894845 178.163857,111.841845 178.062857,111.789845" id="Fill-505" fill="#163044" sketch:type="MSShapeGroup"></path>
        <path d="M157,114.234 C157.979,112.24 158.945,110.286 159.905,108.333 L159.661,108.092 C160.343,108.062 161.032,108.028 161.698,108 C162.074,109.993 159.295,114.882 157,114.234" id="Fill-506" fill="#163044" sketch:type="MSShapeGroup"></path>
        <path d="M171.02944,97.159 C171.12644,98.671 171.28944,100.15 170.74744,101.688 C170.14744,103.405 168.84644,103.902 167.19044,104.068 C166.56244,103.341 167.67444,103.2 167.84344,102.711 C168.05744,102.076 168.44844,101.492 168.81444,100.918 C169.36444,100.052 169.30644,99.078 169.46744,98.131 C169.54144,97.698 170.26544,97.373 170.69744,97 C170.80644,97.052 170.91744,97.107 171.02944,97.159" id="Fill-507" fill="#163044" sketch:type="MSShapeGroup"></path>
        <path d="M151.040142,92 C151.612142,92.149 152.088142,92.303 152.572142,92.391 C153.642142,92.588 154.719142,92.77 155.801142,92.912 C156.061142,92.946 156.342142,92.78 156.617142,92.733 C156.978142,92.671 157.467142,92.466 157.683142,92.622 C158.023142,92.874 158.397142,93.4 158.356142,93.758 C158.314142,94.08 157.744142,94.558 157.381142,94.581 C155.909142,94.682 154.422142,94.73 152.954142,94.609 C151.783142,94.511 150.785142,92.925 151.040142,92" id="Fill-508" fill="#163044" sketch:type="MSShapeGroup"></path>
        <path d="M157.923439,78.604 C157.281439,77.815 156.825439,77.02 156.451439,76.06 C156.044439,75.02 155.930439,74.031 156.038439,73.021 C156.105439,72.396 156.560439,71.799 156.911439,71.231 C157.002439,71.08 157.345439,71.085 157.645439,71 C157.690439,71.326 157.718439,71.54 157.747439,71.754 C157.944439,73.095 158.118439,74.44 158.353439,75.774 C158.410439,76.085 158.761439,76.34 158.830439,76.652 C159.004439,77.441 158.869439,78.153 157.923439,78.604" id="Fill-509" fill="#163044" sketch:type="MSShapeGroup"></path>
        <path d="M150.169435,80 C151.186435,81.183 152.050435,82.237 152.969435,83.235 C153.317435,83.614 153.791435,83.878 154.228435,84.165 C155.183435,84.802 155.524435,84.709 155.141435,86.465 C153.072435,86.124 151.379435,85.007 150.258435,83.399 C149.734435,82.648 150.169435,81.228 150.169435,80" id="Fill-510" fill="#163044" sketch:type="MSShapeGroup"></path>
        <path d="M21,108.191573 C21.391,109.257573 21.687,110.219573 22.098,111.126573 C22.47,111.954573 22.896,112.777573 23.432,113.498573 C24.057,114.342573 26.066,114.660573 26.987,114.259573 C27.274,114.131573 27.667,114.212573 28.006,114.245573 C28.491,114.289573 28.966,114.375573 29.669,114.478573 C28.933,113.343573 28.317,112.458573 27.775,111.533573 C27.416,110.930573 27.031,110.293573 26.892,109.625573 C26.581,108.150573 25.679,107.655573 24.212,108.346573 C24.54,109.262573 24.854,110.186573 25.208,111.097573 C25.356,111.484573 25.627,111.826573 25.76,112.217573 C25.806,112.350573 25.608,112.566573 25.522,112.742573 C25.381,112.649573 25.186,112.588573 25.111,112.458573 C24.697,111.724573 24.283,110.986573 23.926,110.222573 C23.673,109.675573 23.618,109.019573 23.295,108.529573 C22.776,107.749573 21.968,108.011573 21,108.191573" id="Fill-511" fill="#163044" sketch:type="MSShapeGroup"></path>
        <path d="M33.2909712,75.756 C33.4579712,74.224 33.6929712,72.733 33.7659712,71.233 C33.8379712,69.776 33.0729712,68.82 31.6809712,68.312 C31.4909712,68.245 31.3229712,68.119 31.1179712,68 C31.0599712,68.158 30.9769712,68.275 31.0059712,68.329 C32.0409712,70.252 31.4039712,72.313 31.5059712,74.311 C31.5119712,74.471 31.4939712,74.633 31.5079712,74.795 C31.5579712,75.58 32.0729712,75.9 33.2909712,75.756" id="Fill-512" fill="#163044" sketch:type="MSShapeGroup"></path>
        <path d="M8.832,79.9132501 C7.172,78.6382501 5.279,78.9882501 3.551,79.2552501 C2.338,79.4442501 1.283,80.4032501 1,81.9802501 C1.367,81.9602501 1.769,82.0592501 2.01,81.9062501 C3.46,80.9912501 5.066,81.3022501 6.591,81.3782501 C7.803,81.4402501 8.339,80.8642501 8.832,79.9132501" id="Fill-513" fill="#163044" sketch:type="MSShapeGroup"></path>
        <path d="M0.345,86.1104186 C0.688,85.8774186 1.012,85.6024186 1.382,85.4164186 C2.748,84.7354186 4.127,83.9934186 5.726,84.2184186 C6.668,84.3494186 7.05,83.7124186 7.453,83.1254186 C7.774,82.6594186 7.289,81.9644186 6.595,82.0014186 C5.697,82.0484186 4.801,82.2284186 3.918,82.4244186 C3.237,82.5754186 2.578,82.8504186 1.905,83.0514186 C1.171,83.2714186 0.736,83.6984186 0.592,84.4934186 C0.513,84.9444186 0.205,85.3544186 0,85.7834186 C0.116,85.8914186 0.228,86.0014186 0.345,86.1104186" id="Fill-514" fill="#163044" sketch:type="MSShapeGroup"></path>
        <path d="M0.028169969,93.8019655 C0.963169969,92.9219655 1.69216997,92.1159655 2.54416997,91.4709655 C3.41116997,90.8129655 4.39816997,90.3089655 5.33116997,89.7359655 C5.45816997,89.6609655 5.65116997,89.5959655 5.69516997,89.4829655 C5.83816997,89.0739655 5.93516997,88.6449655 6.04916997,88.2229655 C5.40116997,88.1659655 4.59516997,87.8359655 4.14216997,88.1029655 C3.06516997,88.7409655 1.91616997,89.2499655 0.954169969,90.1829655 C-0.193830031,91.2939655 0.00316996904,92.4239655 0.028169969,93.8019655" id="Fill-515" fill="#163044" sketch:type="MSShapeGroup"></path>
        <path d="M18.847,84.3290128 C17.577,83.6190128 16.34,83.0040128 14.883,83.0000128 C13.09,82.9960128 11.841,83.9280128 11.334,85.6510128 C11.276,85.8500128 11.144,86.0270128 11,86.3020128 C11.278,86.3340128 11.577,86.4570128 11.678,86.3640128 C13.269,84.9200128 15.218,85.2370128 17.095,85.2850128 C17.852,85.3040128 18.473,85.2290128 18.847,84.3290128" id="Fill-516" fill="#163044" sketch:type="MSShapeGroup"></path>
        <path d="M18.01,72.7021703 C18.093,71.2841703 17.309,70.5741703 16.585,69.9581703 C15.712,69.2221703 14.703,68.6361703 13.687,68.0991703 C13.347,67.9211703 12.799,68.0151703 12.385,68.1291703 C11.959,68.2481703 11.579,68.5461703 11,68.8591703 C11.201,69.0951703 11.383,69.5231703 11.643,69.5741703 C13.45,69.9271703 14.659,71.0981703 15.907,72.3241703 C16.302,72.7081703 17.203,72.5751703 18.01,72.7021703" id="Fill-517" fill="#163044" sketch:type="MSShapeGroup"></path>
        <path d="M13,82.256963 C14.061,82.256963 15.052,82.292963 16.04,82.247963 C17.129,82.201963 17.954,82.704963 18.821,83.274963 C19.207,83.529963 19.825,83.441963 20.332,83.507963 C20.526,82.199963 18.281,80.131963 16.743,80.018963 C14.611,79.856963 13.042,80.743963 13,82.256963" id="Fill-518" fill="#163044" sketch:type="MSShapeGroup"></path>
        <path d="M27,67.289 C28.239,68.985 28.651,70.883 28.553,72.949 C28.533,73.426 28.864,73.967 29.166,74.386 C29.287,74.556 29.878,74.628 30.038,74.49 C30.351,74.222 30.692,73.78 30.698,73.405 C30.711,72.343 30.822,71.308 30.379,70.209 C30.032,69.347 29.869,68.443 29.064,67.91 C28.487,67.529 27.81,67.296 27.18,67 C27.119,67.096 27.058,67.192 27,67.289" id="Fill-519" fill="#163044" sketch:type="MSShapeGroup"></path>
        <path d="M2.91200985,101.637843 C3.54500985,99.2718427 4.72200985,97.5838427 6.32000985,96.1008427 C6.65900985,95.7858427 6.38000985,94.7868427 6.32900985,94.1128427 C6.32600985,94.0648427 5.68200985,93.9298427 5.57300985,94.0458427 C4.38400985,95.3578427 3.12200985,96.6348427 2.14500985,98.0988427 C1.80600985,98.6098427 2.15100985,99.6168427 2.27600985,100.380843 C2.33400985,100.746843 2.61700985,101.078843 2.91200985,101.637843" id="Fill-520" fill="#163044" sketch:type="MSShapeGroup"></path>
        <path d="M40.6995686,76 C40.4265686,76.676 40.2275686,77.389 39.8705686,78.014 C39.2665686,79.069 38.7205686,80.236 37.8505686,81.034 C37.1035686,81.721 36.8455686,82.317 37.0885686,83.372 C38.5865686,83.44 39.5295686,82.369 40.3145686,81.425 C41.9725686,79.423 42.0715686,78.117 40.6995686,76" id="Fill-521" fill="#163044" sketch:type="MSShapeGroup"></path>
        <path d="M1.17853065,97.9466786 C2.43453065,96.1046786 3.50453065,94.3416786 5.45253065,93.3016786 C5.82753065,93.0996786 6.13453065,92.5056786 6.20353065,92.0526786 C6.32653065,91.2156786 5.46153065,90.6976786 4.76453065,91.1936786 C3.85553065,91.8356786 3.08453065,92.6686786 2.17453065,93.3016786 C1.08053065,94.0656786 0.927530654,95.1076786 1.02453065,96.2826786 C1.06853065,96.8386786 1.12453065,97.3926786 1.17853065,97.9466786" id="Fill-522" fill="#163044" sketch:type="MSShapeGroup"></path>
        <path d="M23,66.1109927 C23.706,67.0789927 24.489,67.9449927 25.016,68.9439927 C25.426,69.7199927 25.624,70.6529927 25.72,71.5379927 C25.791,72.1959927 26.098,72.6219927 26.594,72.8279927 C26.91,72.9589927 27.544,72.8789927 27.73,72.6469927 C27.952,72.3649927 27.922,71.8149927 27.867,71.3999927 C27.783,70.7829927 27.509,70.1909927 27.442,69.5729927 C27.243,67.7629927 25.153,65.8799927 23.412,66.0059927 C23.265,66.0149927 23.125,66.0759927 23,66.1109927" id="Fill-523" fill="#163044" sketch:type="MSShapeGroup"></path>
        <path d="M7.59394946,108.098747 C7.65194946,107.740747 7.71994946,107.508747 7.71594946,107.280747 C7.69794946,105.363747 8.25794946,103.633747 9.35794946,102.066747 C9.70194946,101.579747 9.40994946,100.279747 8.85094946,100.044747 C8.60394946,99.9367466 8.03994946,100.035747 7.93494946,100.218747 C7.42594946,101.124747 7.01994946,102.085747 6.58694946,103.034747 C6.39294946,103.450747 6.14694946,103.862747 6.06294946,104.303747 C5.78794946,105.803747 6.43494946,106.968747 7.59394946,108.098747" id="Fill-524" fill="#163044" sketch:type="MSShapeGroup"></path>
        <path d="M30.099,103.49038 C28.151,102.77838 27.368,100.99338 26.22,99.5593801 C26.147,99.4663801 26.143,99.3173801 26.114,99.1923801 C25.835,97.9693801 25.251,97.7043801 24,98.3183801 C24.332,99.3683801 24.673,100.43238 25,101.50038 C25.561,103.32638 28.326,104.46238 30.099,103.49038" id="Fill-525" fill="#163044" sketch:type="MSShapeGroup"></path>
        <path d="M5,74.5721921 C5.15,74.6391921 5.276,74.7351921 5.412,74.7541921 C6.75,74.9461921 8.095,75.0881921 9.421,75.3301921 C9.93,75.4241921 10.447,75.6721921 10.864,75.9771921 C11.384,76.3551921 11.783,76.5141921 12.256,75.9521921 C12.479,75.6941921 13.035,75.4441921 13,75.3021921 C12.908,74.9421921 12.637,74.4751921 12.32,74.3551921 C10.999,73.8551921 9.662,73.2671921 8.284,73.0891921 C6.475,72.8521921 6.455,73.0051921 5,74.5721921" id="Fill-526" fill="#163044" sketch:type="MSShapeGroup"></path>
        <path d="M59.7602566,108.068534 C59.7132566,108.060534 59.4602566,108.029534 59.2052566,108.016534 C57.8502566,107.943534 57.7722566,108.068534 58.3122566,109.296534 C58.7472566,110.295534 59.1482566,111.308534 59.5922566,112.301534 C60.1502566,113.560534 61.7092566,114.454534 63.0072566,114.232534 C61.9542566,112.238534 60.9122566,110.254534 59.7602566,108.068534" id="Fill-527" fill="#163044" sketch:type="MSShapeGroup"></path>
        <path d="M31.667,89.039 C31.037,89.231 30.518,89.394 29.995,89.548 C29.788,89.613 29.561,89.736 29.364,89.706 C28.096,89.503 26.822,89.327 25.894,88.265 C25.739,88.088 25.36,88.1 25,88 C25.689,91.306 27.531,92.329 29.317,92.031 C30.252,91.876 31.703,90.247 31.667,89.039" id="Fill-528" fill="#163044" sketch:type="MSShapeGroup"></path>
        <path d="M17.3047824,101.526865 C17.3047824,100.298865 17.2237824,99.136865 17.3317824,97.993865 C17.4077824,97.175865 17.6447824,96.338865 17.9807824,95.587865 C18.2677824,94.948865 18.1207824,94.420865 17.6797824,94.129865 C17.0387824,93.704865 16.4927824,94.428865 16.3467824,94.784865 C15.7617824,96.196865 14.8027824,97.507865 15.0357824,99.188865 C15.1777824,100.219865 16.2377824,101.454865 17.3047824,101.526865" id="Fill-529" fill="#163044" sketch:type="MSShapeGroup"></path>
        <path d="M73.165,114.214545 C72.347,112.805545 71.502,111.400545 70.717,109.964545 C70.502,109.566545 70.585,108.986545 70.338,108.627545 C69.746,107.775545 68.872,107.974545 68,108.171545 C68.336,110.273545 69.344,111.989545 70.616,113.560545 C71.279,114.376545 72.173,114.557545 73.165,114.214545" id="Fill-530" fill="#163044" sketch:type="MSShapeGroup"></path>
        <path d="M27,98.4134361 C27.801,99.5484361 28.539,100.700436 29.385,101.761436 C30.06,102.612436 32.756,103.088436 33.641,102.568436 C33.859,102.437436 33.929,102.058436 34.086,101.755436 C31.875,101.278436 30.365,100.027436 29.221,98.2564361 C28.973,97.8694361 27.919,97.9194361 27,98.4134361" id="Fill-531" fill="#163044" sketch:type="MSShapeGroup"></path>
        <path d="M27,85.765 C28.862,85.985 30.944,84.397 31.569,83.162 C32.195,81.925 31.529,80.17 30.174,79 C29.857,80.277 29.635,81.594 29.185,82.83 C28.781,83.942 27.161,84.278 27,85.765" id="Fill-532" fill="#163044" sketch:type="MSShapeGroup"></path>
        <path d="M32.383,114.125 C31.723,113.114 31.04,112.222 30.527,111.239 C30.003,110.236 29.641,109.145 29.171,108 L27,108 C27.519,109.972 28.316,111.694 29.59,113.155 C30.223,113.883 30.995,114.541 32.383,114.125" id="Fill-533" fill="#163044" sketch:type="MSShapeGroup"></path>
        <path d="M3,78.3114277 C3.521,78.2534277 4.04,78.3204277 4.426,78.1294277 C5.451,77.6294277 6.374,77.6614277 7.416,78.1344277 C8.125,78.4574277 8.999,78.6044277 9.774,78.5344277 C10.247,78.4884277 10.662,77.8814277 11.159,77.4834277 C10.271,76.5034277 9.142,76.2894277 8.071,76.0664277 C7.33,75.9154277 6.531,76.0784277 5.768,76.0134277 C4.19,75.8784277 3.571,76.8734277 3,78.3114277" id="Fill-534" fill="#163044" sketch:type="MSShapeGroup"></path>
        <path d="M22.368,83.0383269 C22.66,81.2093269 21.558,80.0963269 20.415,78.9473269 C19.009,77.5293269 17.588,77.8783269 16,78.8493269 C16.337,79.1033269 16.654,79.5313269 17.032,79.5923269 C18.757,79.8803269 19.668,81.1973269 20.717,82.3473269 C21.136,82.8093269 21.471,83.3973269 22.368,83.0383269" id="Fill-535" fill="#163044" sketch:type="MSShapeGroup"></path>
        <path d="M21.268,72.1002485 C21.585,70.6612485 20.536,69.8152485 19.908,68.8432485 C19.559,68.3052485 18.863,68.0052485 18.376,67.5432485 C17.529,66.7332485 16.516,67.0652485 15.554,67.0782485 C15.365,67.0802485 15.184,67.3182485 15,67.4512485 C15.154,67.6702485 15.263,67.9822485 15.473,68.0882485 C17.007,68.8602485 18.376,69.7632485 19.099,71.4362485 C19.454,72.2552485 19.919,72.3472485 21.268,72.1002485" id="Fill-536" fill="#163044" sketch:type="MSShapeGroup"></path>
        <path d="M42.362,114.047804 C42.191,113.786804 42.041,113.513804 41.853,113.270804 C40.964,112.113804 40.149,110.915804 39.9,109.443804 C39.677,108.118804 38.924,107.736804 37,108.170804 C37.556,109.322804 38.185,110.415804 38.622,111.577804 C39.02,112.628804 39.668,113.413804 40.598,113.953804 C41.051,114.213804 41.616,114.279804 42.13,114.431804 C42.207,114.304804 42.282,114.175804 42.362,114.047804" id="Fill-537" fill="#163044" sketch:type="MSShapeGroup"></path>
        <path d="M66.375,114.178 C65.113,112.322 63.831,110.488 63.337,108.106 C62.722,108.078 62.04,108.047 61,108 C61.372,109.095 61.587,110.012 61.992,110.839 C62.394,111.661 63.005,112.379 63.487,113.169 C64.051,114.101 65.196,114.539 66.375,114.178" id="Fill-538" fill="#163044" sketch:type="MSShapeGroup"></path>
        <path d="M43.0706194,88 C41.9186194,89.004 40.7886194,89.701 39.3226194,89.802 C38.4006194,89.863 37.4726194,90.095 36.5996194,90.395 C36.3006194,90.497 36.0396194,91.034 36.0006194,91.399 C35.9796194,91.579 36.4976194,91.973 36.7936194,91.995 C37.7486194,92.07 38.7546194,92.178 39.6676194,91.968 C40.6626194,91.738 41.7266194,91.338 42.4656194,90.681 C42.9716194,90.235 42.9816194,89.223 43.1926194,88.458 C43.2176194,88.36 43.1326194,88.227 43.0706194,88" id="Fill-539" fill="#163044" sketch:type="MSShapeGroup"></path>
        <path d="M37.4054127,73.074 C37.1724127,73.993 37.0164127,74.941 36.6824127,75.821 C36.3544127,76.689 35.8234127,77.477 35.4304127,78.322 C35.2274127,78.761 35.0474127,79.239 35.0014127,79.714 C34.9784127,79.971 35.2414127,80.462 35.4144127,80.484 C35.7774127,80.527 36.3564127,80.448 36.5174127,80.203 C37.2884127,79.019 38.3624127,77.99 38.4904127,76.437 C38.5354127,75.841 39.2594127,75.348 38.5214127,74.646 C38.1064127,74.247 37.9754127,73.557 37.7124127,73 C37.6104127,73.025 37.5054127,73.048 37.4054127,73.074" id="Fill-540" fill="#163044" sketch:type="MSShapeGroup"></path>
        <path d="M68.81641,114.198 C68.10841,112.826 67.38741,111.478 66.71741,110.112 C66.45641,109.575 66.45241,108.781 66.04941,108.474 C65.57141,108.108 64.79041,108.142 64.14041,108 C64.10641,108.556 63.88641,109.182 64.07641,109.646 C64.48041,110.648 65.15441,111.54 65.61141,112.524 C66.18641,113.756 67.57541,114.489 68.81641,114.198" id="Fill-541" fill="#163044" sketch:type="MSShapeGroup"></path>
        <path d="M11.1662576,95.5043875 C12.1982576,94.2633875 12.9512576,93.2093875 13.8542576,92.3073875 C14.7312576,91.4343875 15.7632576,90.7163875 16.7162576,89.9363875 C16.0122576,88.7953875 16.0102576,88.7933875 14.8032576,89.4153875 C14.0432576,89.8083875 13.3052576,90.2363875 12.5392576,90.6103875 C11.3302576,91.2023875 10.9112576,92.1923875 11.0152576,93.4753875 C11.0632576,94.0643875 11.1072576,94.6563875 11.1662576,95.5043875" id="Fill-542" fill="#163044" sketch:type="MSShapeGroup"></path>
        <path d="M10.188368,90.8330618 C10.866368,89.7120618 11.906368,89.1980618 12.984368,88.7650618 C13.887368,88.4030618 14.845368,88.1710618 15.738368,87.7810618 C16.030368,87.6540618 16.348368,87.1990618 16.340368,86.9070618 C16.330368,86.6330618 15.912368,86.3580618 15.638368,86.1210618 C15.533368,86.0300618 15.322368,85.9740618 15.189368,86.0120618 C13.554368,86.4800618 11.737368,86.4050618 10.494368,87.9540618 C9.71636803,88.9280618 10.056368,89.8470618 10.188368,90.8330618" id="Fill-543" fill="#163044" sketch:type="MSShapeGroup"></path>
        <path d="M7.16503624,97 C6.36303624,98.043 5.44403624,98.951 4.88403624,100.043 C4.29203624,101.194 3.41203624,102.469 4.55803624,103.846 C4.70603624,104.021 4.70603624,104.323 4.86003624,104.871 C5.23903624,104.431 5.56903624,104.176 5.72003624,103.844 C5.97803624,103.261 6.07403624,102.605 6.33403624,102.021 C6.70403624,101.184 7.09303624,100.336 7.60303624,99.579 C8.36403624,98.446 8.35803624,97.993 7.16503624,97" id="Fill-544" fill="#163044" sketch:type="MSShapeGroup"></path>
        <path d="M15.0146883,106.10356 C15.0146883,107.65056 14.9736883,109.12556 15.0286883,110.59356 C15.0666883,111.62856 16.5066883,113.21156 17.5496883,113.45656 C17.8006883,113.51556 18.0816883,113.43856 18.1536883,113.43556 C17.8406883,112.34256 17.5426883,111.32156 17.2516883,110.29856 C17.0796883,109.70256 16.8536883,109.11956 16.7586883,108.51356 C16.6816883,108.00956 16.8226883,107.47856 16.7566883,106.97456 C16.6296883,105.97056 15.9536883,105.87356 15.0146883,106.10356" id="Fill-545" fill="#163044" sketch:type="MSShapeGroup"></path>
        <path d="M29,97.9556679 C29.804,98.6586679 30.531,99.3576679 31.321,99.9746679 C32.993,101.283668 34.749,101.711668 36.564,99.6006679 C36.393,99.5156679 36.234,99.3666679 36.084,99.3726679 C34.142,99.4456679 32.614,98.4746679 31.096,97.4576679 C30.067,96.7676679 29.907,96.7996679 29,97.9556679" id="Fill-546" fill="#163044" sketch:type="MSShapeGroup"></path>
        <path d="M37.035893,89.234 C37.841893,89.048 38.646893,88.893 39.434893,88.67 C40.106893,88.478 40.754893,88.193 41.419893,87.975 C42.941893,87.469 43.728893,85.531 43.032893,84 C42.326893,84.627 41.656893,85.311 40.889893,85.866 C40.322893,86.277 39.661893,86.649 38.986893,86.808 C37.673893,87.123 36.809893,87.957 37.035893,89.234" id="Fill-547" fill="#163044" sketch:type="MSShapeGroup"></path>
        <path d="M54,108.299286 C54.754,110.243286 55.37,112.288286 57.006,113.707286 C57.495,114.134286 58.275,114.222286 58.925,114.465286 L59.187,114.222286 C59.031,113.910286 58.915,113.560286 58.706,113.286286 C57.789,112.094286 57.01,110.844286 56.689,109.339286 C56.449,108.196286 55.626,107.601286 54,108.299286" id="Fill-548" fill="#163044" sketch:type="MSShapeGroup"></path>
        <path d="M18,107.024824 C18.195,108.054824 18.391,109.079824 18.581,110.109824 C18.642,110.452824 18.701,110.798824 18.732,111.146824 C18.855,112.474824 20.526,114.343824 22.152,113.698824 C21.943,113.235824 21.8,112.734824 21.52,112.328824 C20.736,111.188824 20.348,109.965824 20.377,108.565824 C20.396,107.672824 19.212,106.844824 18,107.024824" id="Fill-549" fill="#163044" sketch:type="MSShapeGroup"></path>
        <path d="M8,72.0573645 C8.28,72.2713645 8.558,72.6633645 8.846,72.6683645 C10.683,72.6933645 12.301,73.2753645 13.628,74.5213645 C14.377,75.2243645 14.878,74.3883645 15.483,74.4643645 C16.002,73.2243645 14.844,72.7253645 14.309,72.4173645 C13.141,71.7453645 11.956,70.7813645 10.442,71.0443645 C9.662,71.1763645 8.91,71.4743645 8.148,71.6963645 C8.098,71.8153645 8.048,71.9393645 8,72.0573645" id="Fill-550" fill="#163044" sketch:type="MSShapeGroup"></path>
        <path d="M25,77.0146842 C25.325,78.1066842 25.755,79.1146842 25.895,80.1606842 C26.036,81.1956842 25.865,82.2696842 25.861,83.3276842 C25.857,83.6536842 25.945,83.9826842 26,84.3816842 C27.882,82.8946842 28.831,80.3136842 28.106,78.8616842 C27.645,77.9336842 25.672,76.8616842 25,77.0146842" id="Fill-551" fill="#163044" sketch:type="MSShapeGroup"></path>
        <path d="M21.3652134,103.172837 C19.9802134,101.483837 20.1522134,99.4948373 20.1682134,97.5258373 C20.1732134,97.1338373 20.0592134,96.6608373 19.8262134,96.3638373 C19.3752134,95.7768373 18.7272134,95.9258373 18.5202134,96.6258373 C18.3072134,97.3478373 18.0032134,98.0808373 18.0002134,98.8098373 C17.9912134,100.500837 18.2612134,102.157837 19.8802134,103.143837 C20.2452134,103.371837 20.7792134,103.329837 21.2342134,103.413837 L21.3652134,103.172837" id="Fill-552" fill="#163044" sketch:type="MSShapeGroup"></path>
        <path d="M0.180314854,90.1974579 C1.20131485,88.9894579 2.31331485,88.1204579 3.76531485,87.7444579 C4.32431485,87.6004579 4.90231485,87.4494579 5.40731485,87.1824579 C5.75731485,86.9974579 6.14831485,86.6554579 6.25331485,86.3024579 C6.36431485,85.9314579 6.30031485,85.2654579 6.05531485,85.0904579 C5.78831485,84.8974579 5.20431485,85.0544579 4.79431485,85.1804579 C3.91531485,85.4484579 3.07731485,85.8404579 2.19931485,86.1004579 C0.546314854,86.5904579 -0.422685146,88.4094579 0.180314854,90.1974579" id="Fill-553" fill="#163044" sketch:type="MSShapeGroup"></path>
        <path d="M17.1656028,92.0132134 C15.9726028,91.8732134 14.2546028,92.8682134 13.7256028,93.9312134 C12.9086028,95.5862134 12.5266028,97.2482134 13.9746028,99.0262134 C14.2606028,98.5382134 14.6536028,98.1702134 14.6836028,97.7682134 C14.8256028,96.0122134 15.6006028,94.6582134 16.9166028,93.5092134 C17.2006028,93.2642134 17.0876028,92.5652134 17.1656028,92.0132134" id="Fill-554" fill="#163044" sketch:type="MSShapeGroup"></path>
        <path d="M24.14,83.4504796 C25.626,81.7774796 25.422,79.3624796 24.017,77.7664796 C23.317,76.9674796 21.254,76.7134796 20,77.3894796 C21.601,77.6914796 22.073,79.0414796 22.856,80.0544796 C23.214,80.5204796 23.332,81.1814796 23.546,81.7574796 C23.751,82.3174796 23.941,82.8854796 24.14,83.4504796" id="Fill-555" fill="#163044" sketch:type="MSShapeGroup"></path>
        <path d="M52.878718,114.175054 C52.184718,112.781054 51.470718,111.361054 50.774718,109.933054 C50.560718,109.494054 50.463718,108.988054 50.192718,108.589054 C50.009718,108.320054 49.637718,108.066054 49.322718,108.021054 C48.915718,107.969054 48.229718,108.004054 48.114718,108.232054 C47.930718,108.589054 47.979718,109.211054 48.178718,109.593054 C48.838718,110.874054 49.621718,112.092054 50.330718,113.344054 C50.677718,113.956054 52.152718,114.399054 52.878718,114.175054" id="Fill-556" fill="#163044" sketch:type="MSShapeGroup"></path>
        <path d="M32.361,83 C31.958,84.753 30.531,85.553 29.192,86.381 C28.804,86.621 28.182,86.451 27.675,86.535 C27.437,86.574 27.224,86.769 27,86.895 C27.133,87.128 27.22,87.409 27.407,87.585 C28.563,88.677 31.496,88.306 32.445,86.863 C32.514,86.757 32.645,86.652 32.649,86.546 C32.664,85.383 32.658,84.218 32.658,83.056 C32.56,83.036 32.461,83.019 32.361,83" id="Fill-557" fill="#163044" sketch:type="MSShapeGroup"></path>
        <path d="M41,108.553104 C41.216,109.092104 41.333,109.629104 41.616,110.057104 C42.361,111.181104 42.644,112.623104 43.845,113.425104 C44.355,113.768104 44.936,114.014104 45.502,114.258104 C45.614,114.307104 45.899,114.180104 45.97,114.059104 C46.04,113.932104 46.003,113.674104 45.916,113.535104 C45.28,112.479104 44.588,111.455104 43.973,110.385104 C43.669,109.850104 43.48,109.247104 43.259,108.663104 C43.058,108.135104 41.572,107.766104 41.159,108.174104 C41.061,108.270104 41.041,108.451104 41,108.553104" id="Fill-558" fill="#163044" sketch:type="MSShapeGroup"></path>
        <path d="M39.0033007,114.208481 C37.7013007,112.482481 36.6653007,110.825481 36.0643007,108.907481 C35.9443007,108.525481 35.4073007,108.182481 34.9853007,108.024481 C34.7173007,107.922481 34.0273007,108.163481 34.0153007,108.301481 C33.9653007,108.764481 34.0373007,109.294481 34.2393007,109.712481 C34.8163007,110.877481 35.4313007,112.029481 36.1113007,113.135481 C36.7343007,114.142481 37.7203007,114.380481 39.0033007,114.208481" id="Fill-559" fill="#163044" sketch:type="MSShapeGroup"></path>
        <path d="M32,95.6740667 C33.002,96.9310667 34.119,97.6020667 35.572,97.7640667 C36.465,97.8620667 37.386,98.2090667 38.223,97.7410667 C38.896,97.3640667 39.477,96.8030667 40.066,96.2890667 C40.132,96.2290667 40.008,95.9480667 39.987,95.8520667 C38.367,95.9820667 36.824,96.4170667 35.307,95.6000667 C34.789,95.3210667 34.206,95.0030667 33.652,95.0000667 C33.147,94.9940667 32.64,95.3940667 32,95.6740667" id="Fill-560" fill="#163044" sketch:type="MSShapeGroup"></path>
        <path d="M11.8029343,103.315 C11.7319343,103.22 11.5919343,102.986 11.4079343,102.785 C11.1489343,102.51 10.8589343,102.26 10.5829343,102 C10.2999343,102.302 9.86893426,102.561 9.75693426,102.918 C9.29393426,104.414 8.97193426,105.923 9.00193426,107.532 C9.01993426,108.8 9.83993426,109.328 10.8089343,110.023 C10.8089343,108.896 10.6819343,107.751 10.8429343,106.648 C10.9999343,105.549 11.4499343,104.491 11.8029343,103.315" id="Fill-561" fill="#163044" sketch:type="MSShapeGroup"></path>
        <path d="M55.9791784,114.276407 C55.3201784,113.247407 54.7241784,112.394407 54.2201784,111.490407 C53.8301784,110.793407 53.6011784,110.004407 53.2201784,109.298407 C52.9721784,108.837407 52.6511784,108.343407 52.2301784,108.073407 C51.9701784,107.903407 51.1371784,108.065407 51.1121784,108.189407 C51.0031784,108.728407 50.9121784,109.403407 51.1481784,109.858407 C51.7531784,111.028407 52.5041784,112.126407 53.2561784,113.211407 C53.8751784,114.105407 54.8051784,114.332407 55.9791784,114.276407" id="Fill-562" fill="#163044" sketch:type="MSShapeGroup"></path>
        <path d="M79.7600464,108.068534 C79.7150464,108.060534 79.4640464,108.029534 79.2080464,108.016534 C77.8530464,107.943534 77.7710464,108.068534 78.3110464,109.296534 C78.7500464,110.295534 79.1480464,111.308534 79.5920464,112.301534 C80.1500464,113.560534 81.7090464,114.454534 83.0090464,114.232534 C81.9580464,112.238534 80.9140464,110.254534 79.7600464,108.068534" id="Fill-563" fill="#163044" sketch:type="MSShapeGroup"></path>
        <path d="M93.166,114.214545 C92.351,112.805545 91.505,111.400545 90.723,109.964545 C90.505,109.566545 90.587,108.986545 90.339,108.627545 C89.746,107.775545 88.875,107.974545 88,108.171545 C88.339,110.273545 89.344,111.989545 90.619,113.560545 C91.283,114.376545 92.174,114.557545 93.166,114.214545" id="Fill-564" fill="#163044" sketch:type="MSShapeGroup"></path>
        <path d="M86.376,114.178 C85.117,112.322 83.831,110.488 83.342,108.106 C82.725,108.078 82.04,108.047 81,108 C81.376,109.095 81.59,110.012 81.992,110.839 C82.397,111.661 83.008,112.379 83.487,113.169 C84.054,114.101 85.198,114.539 86.376,114.178" id="Fill-565" fill="#163044" sketch:type="MSShapeGroup"></path>
        <path d="M89.8176499,114.198 C89.1076499,112.826 88.3906499,111.478 87.7206499,110.112 C87.4546499,109.575 87.4506499,108.781 87.0486499,108.474 C86.5696499,108.108 85.7906499,108.142 85.1416499,108 C85.1066499,108.556 84.8876499,109.182 85.0746499,109.646 C85.4816499,110.648 86.1526499,111.54 86.6116499,112.524 C87.1876499,113.756 88.5776499,114.489 89.8176499,114.198" id="Fill-566" fill="#163044" sketch:type="MSShapeGroup"></path>
        <path d="M74,108.299286 C74.752,110.243286 75.368,112.288286 77.003,113.707286 C77.493,114.134286 78.276,114.222286 78.926,114.465286 L79.187,114.222286 C79.03,113.910286 78.914,113.560286 78.703,113.286286 C77.788,112.094286 77.011,110.844286 76.688,109.339286 C76.447,108.196286 75.627,107.601286 74,108.299286" id="Fill-567" fill="#163044" sketch:type="MSShapeGroup"></path>
        <path d="M75.9798288,114.276407 C75.3218288,113.247407 74.7218288,112.394407 74.2208288,111.490407 C73.8298288,110.793407 73.5998288,110.004407 73.2198288,109.298407 C72.9718288,108.837407 72.6498288,108.343407 72.2288288,108.073407 C71.9678288,107.903407 71.1368288,108.065407 71.1088288,108.189407 C71.0028288,108.728407 70.9138288,109.403407 71.1468288,109.858407 C71.7568288,111.028407 72.5038288,112.126407 73.2538288,113.211407 C73.8728288,114.105407 74.8048288,114.332407 75.9798288,114.276407" id="Fill-568" fill="#163044" sketch:type="MSShapeGroup"></path>
        <path d="M19,66.4060306 C20.681,67.6940306 21.808,69.3580306 22.6,71.2990306 C22.725,71.6060306 23.413,71.7290306 23.863,71.8160306 C23.942,71.8310306 24.277,71.2520306 24.26,70.9600306 C24.151,69.0380306 23.208,67.4360306 21.785,66.2970306 C21.191,65.8210306 20.006,66.0790306 19.089,66.0050306 C19.062,66.1390306 19.032,66.2710306 19,66.4060306" id="Fill-569" fill="#163044" sketch:type="MSShapeGroup"></path>
        <path d="M49.205071,114.443739 C47.818071,112.453739 46.663071,110.705739 46.130071,108.633739 C46.009071,108.152739 44.955071,107.783739 44.319071,108.145739 C44.073071,108.287739 43.907071,109.028739 44.057071,109.322739 C44.707071,110.611739 45.417071,111.886739 46.239071,113.073739 C46.868071,113.984739 47.871071,114.335739 49.205071,114.443739" id="Fill-570" fill="#163044" sketch:type="MSShapeGroup"></path>
        <path d="M14.2574619,111.789845 C14.2574619,111.388845 14.4154619,110.882845 14.2294619,110.605845 C13.4404619,109.410845 13.8574619,108.115845 13.8084619,106.867845 C13.8024619,106.618845 14.0094619,106.352845 14.1384619,106.108845 C14.5164619,105.406845 14.2274619,104.402845 13.5334619,104.056845 C13.0374619,103.809845 12.1514619,104.402845 12.1144619,105.157845 C12.0374619,106.756845 11.8804619,108.396845 12.1574619,109.949845 C12.2914619,110.696845 13.3304619,111.286845 13.9574619,111.946845 C14.0584619,111.894845 14.1574619,111.841845 14.2574619,111.789845" id="Fill-571" fill="#163044" sketch:type="MSShapeGroup"></path>
        <path d="M35.7344305,114.234 C34.7534305,112.24 33.7884305,110.286 32.8274305,108.333 L33.0724305,108.092 C32.3884305,108.062 31.7024305,108.028 31.0344305,108 C30.6584305,109.993 33.4364305,114.882 35.7344305,114.234" id="Fill-572" fill="#163044" sketch:type="MSShapeGroup"></path>
        <path d="M21.1001562,97.159 C21.0051562,98.671 20.8401562,100.15 21.3801562,101.688 C21.9811562,103.405 23.2831562,103.902 24.9381562,104.068 C25.5671562,103.341 24.4551562,103.2 24.2871562,102.711 C24.0721562,102.076 23.6811562,101.492 23.3141562,100.918 C22.7641562,100.052 22.8231562,99.078 22.6621562,98.131 C22.5891562,97.698 21.8631562,97.373 21.4341562,97 C21.3221562,97.052 21.2121562,97.107 21.1001562,97.159" id="Fill-573" fill="#163044" sketch:type="MSShapeGroup"></path>
        <path d="M41.3173902,92 C40.7463902,92.149 40.2703902,92.303 39.7853902,92.391 C38.7153902,92.588 37.6373902,92.77 36.5553902,92.912 C36.2963902,92.946 36.0143902,92.78 35.7423902,92.733 C35.3803902,92.671 34.8893902,92.466 34.6733902,92.622 C34.3343902,92.874 33.9603902,93.4 34.0033902,93.758 C34.0443902,94.08 34.6123902,94.558 34.9753902,94.581 C36.4473902,94.682 37.9363902,94.73 39.4023902,94.609 C40.5733902,94.511 41.5713902,92.925 41.3173902,92" id="Fill-574" fill="#163044" sketch:type="MSShapeGroup"></path>
        <path d="M34.9719635,78.604 C35.6139635,77.815 36.0689635,77.02 36.4429635,76.06 C36.8509635,75.02 36.9649635,74.031 36.8569635,73.021 C36.7879635,72.396 36.3349635,71.799 35.9849635,71.231 C35.8919635,71.08 35.5519635,71.085 35.2499635,71 C35.2039635,71.326 35.1769635,71.54 35.1469635,71.754 C34.9519635,73.095 34.7779635,74.44 34.5419635,75.774 C34.4859635,76.085 34.1349635,76.34 34.0649635,76.652 C33.8909635,77.441 34.0259635,78.153 34.9719635,78.604" id="Fill-575" fill="#163044" sketch:type="MSShapeGroup"></path>
        <path d="M42.125757,80 C41.107757,81.183 40.245757,82.237 39.322757,83.235 C38.977757,83.614 38.505757,83.878 38.065757,84.165 C37.113757,84.802 36.770757,84.709 37.153757,86.465 C39.222757,86.124 40.916757,85.007 42.036757,83.399 C42.560757,82.648 42.125757,81.228 42.125757,80" id="Fill-576" fill="#163044" sketch:type="MSShapeGroup"></path>
        <path d="M60.4720646,70.117 C61.1190646,75.003 67.1410646,80.156 67.1410646,80.156 C65.7300646,80.156 63.6980646,79.8 63.7870646,80.533 C64.1110646,83.28 73.6620646,93.143 81.3870646,96.178 C68.4750646,91.113 59.9710646,82 60.4720646,70.117 L60.4720646,70.117 Z M79.8110646,28.747 C79.5010646,28.747 79.2510646,28.494 79.2510646,28.18 C79.2510646,27.868 79.5010646,27.614 79.8110646,27.614 L99.4370646,27.614 C100.029065,26.861 100.379065,25.973 100.379065,25.015 C100.379065,23.506 99.5280646,22.172 98.2060646,21.263 C100.079065,21.846 101.413065,23.3 101.413065,25.015 C101.413065,26.009 100.953065,26.915 100.205065,27.614 L114.085065,27.614 C114.397065,27.614 114.650065,27.868 114.650065,28.18 C114.650065,28.494 114.397065,28.747 114.085065,28.747 L98.2560646,28.747 L98.2060646,28.768 L98.2340646,28.747 L79.8110646,28.747 L79.8110646,28.747 Z M96.0880646,102.442 L97.3430646,33.719 C98.4920646,74.148 97.7550646,73.055 98.3910646,81.293 C99.0690646,90.083 102.558065,100.246 115.110065,93.804 C117.075065,92.795 118.652065,91.708 119.924065,90.586 C130.833065,80.931 127.269065,79.383 124.835065,80.016 C128.030065,77.957 130.370065,74.685 131.179065,70.842 C131.096065,72.018 130.981065,73.351 130.818065,74.89 C128.104065,100.901 96.0880646,102.442 96.0880646,102.442 L96.0880646,102.442 Z M96.0880646,17.38 C92.5530646,17.38 89.6910646,14.514 89.6910646,10.981 C89.6910646,7.451 92.5530646,4.584 96.0880646,4.584 C99.6230646,4.584 102.483065,7.451 102.483065,10.981 C102.483065,14.514 99.6230646,17.38 96.0880646,17.38 L96.0880646,17.38 Z M105.212065,12.587 C105.212065,6.7 100.170065,1.926 93.9530646,1.926 C93.7230646,1.926 93.4990646,1.946 93.2760646,1.96 C94.3030646,1.588 95.4090646,1.377 96.5730646,1.377 C101.701065,1.377 105.853065,5.31 105.853065,10.164 C105.853065,11.338 105.604065,12.453 105.167065,13.478 C105.190065,13.183 105.212065,12.89 105.212065,12.587 L105.212065,12.587 Z M61.0890646,88.802 C59.0910646,84.936 60.0790646,84.728 60.9600646,83.743 C63.2680646,89.075 67.7930646,96.782 75.6130646,100.47 C87.7620646,106.199 95.2570646,107.97 96.0090646,113.832 C96.0380646,114.845 96.0630646,115.138 96.0840646,114.516 L96.0880646,114.505 L96.0880646,114.516 C96.1070646,115.138 96.1320646,114.845 96.1620646,113.832 C96.9190646,107.97 104.411065,106.199 116.562065,100.47 C124.377065,96.782 128.907065,89.075 131.215065,83.743 C132.098065,84.728 133.087065,84.936 131.087065,88.802 C136.084065,85.231 136.801065,71.899 131.557065,65.946 C131.557065,65.946 130.607065,76.426 121.559065,81.423 C123.068065,81.538 124.742065,81.816 126.338065,81.528 C124.268065,84.458 120.948065,88.035 115.607065,91.661 C102.991065,100.231 100.845065,84.758 100.845065,84.758 L99.1840646,33.329 L99.2070646,32.853 L113.946065,32.853 C115.652065,32.853 117.036065,31.464 117.036065,29.758 C117.036065,28.048 115.652065,26.662 113.946065,26.662 L102.240065,26.662 C102.558065,26.054 102.758065,25.373 102.758065,24.642 C102.758065,23.416 102.253065,22.313 101.454065,21.516 C105.062065,19.596 107.514065,15.797 107.514065,11.428 C107.514065,5.115 102.397065,0 96.0880646,0 C89.7760646,0 84.6590646,5.115 84.6590646,11.428 C84.6590646,15.797 87.1160646,19.596 90.7230646,21.516 C89.9210646,22.313 89.4180646,23.416 89.4180646,24.642 C89.4180646,25.373 89.6190646,26.054 89.9360646,26.662 L78.2350646,26.662 C76.5240646,26.662 75.1390646,28.048 75.1390646,29.758 C75.1390646,31.464 76.5240646,32.853 78.2350646,32.853 L92.9670646,32.853 L92.9900646,33.329 L91.3290646,84.758 C91.3290646,84.758 89.1860646,100.231 76.5690646,91.661 C71.2270646,88.035 67.9070646,84.458 65.8370646,81.528 C67.4350646,81.816 69.1080646,81.538 70.6150646,81.423 C61.5690646,76.426 60.6110646,65.946 60.6110646,65.946 C55.3750646,71.899 56.0930646,85.231 61.0890646,88.802 L61.0890646,88.802 Z" id="Fill-577" fill="#163044" sketch:type="MSShapeGroup"></path>
    </g>
</svg>