<?xml version="1.0" encoding="UTF-8" standalone="no"?>
<svg width="171px" height="25px" viewBox="0 0 171 25" version="1.1" xmlns="http://www.w3.org/2000/svg" xmlns:xlink="http://www.w3.org/1999/xlink" xmlns:sketch="http://www.bohemiancoding.com/sketch/ns">
    <!-- Generator: Sketch 3.3.3 (12081) - http://www.bohemiancoding.com/sketch -->
    <title>Slice 1</title>
    <desc>Created with Sketch.</desc>
    <defs></defs>
    <g id="Page-1" stroke="none" stroke-width="1" fill="none" fill-rule="evenodd" sketch:type="MSPage">
        <path d="M98,15.8790351 C98.774,14.3160351 99.471,12.8190351 100.251,11.3690351 C100.909,10.1510351 102.041,9.75703513 103.426,10.1420351 C103.01,10.8280351 102.581,11.5070351 102.177,12.1980351 C101.849,12.7580351 101.515,13.3220351 101.237,13.9070351 C100.983,14.4300351 100.854,15.0150351 100.579,15.5250351 C100.228,16.1870351 99.342,16.3270351 98,15.8790351" id="Fill-578" fill="#163044" sketch:type="MSShapeGroup"></path>
        <path d="M104,15.860707 C104.54,14.779707 105.029,13.665707 105.642,12.626707 C106.089,11.869707 106.659,11.174707 107.256,10.524707 C107.819,9.91870696 108.583,9.86670696 109.433,10.219707 C108.731,11.301707 108.014,12.374707 107.34,13.478707 C107.084,13.895707 106.904,14.371707 106.746,14.837707 C106.268,16.249707 105.393,16.604707 104,15.860707" id="Fill-579" fill="#163044" sketch:type="MSShapeGroup"></path>
        <path d="M108,15.996 C108.358,15.184 108.662,14.418 109.027,13.679 C109.636,12.452 110.263,11.188 111.378,10.374 C111.862,10.018 112.688,10.13 113.573,10 C112.995,10.925 112.553,11.602 112.141,12.3 C111.807,12.86 111.488,13.438 111.203,14.028 C110.934,14.578 110.78,15.187 110.464,15.703 C110.062,16.352 109.081,16.442 108,15.996" id="Fill-580" fill="#163044" sketch:type="MSShapeGroup"></path>
        <path d="M101,15.973 C101.353,15.125 101.584,14.282 102.02,13.562 C102.726,12.406 103.461,11.235 104.393,10.273 C104.752,9.903 105.682,10.084 106.512,10 C105.674,11.306 104.957,12.378 104.286,13.476 C104.028,13.895 103.833,14.363 103.672,14.829 C103.165,16.282 102.611,16.545 101,15.973" id="Fill-581" fill="#163044" sketch:type="MSShapeGroup"></path>
        <path d="M111,15.8790351 C111.777,14.3160351 112.469,12.8190351 113.248,11.3690351 C113.906,10.1510351 115.039,9.75703513 116.423,10.1420351 C116.006,10.8280351 115.581,11.5070351 115.175,12.1980351 C114.85,12.7580351 114.515,13.3220351 114.235,13.9070351 C113.985,14.4300351 113.852,15.0150351 113.578,15.5250351 C113.226,16.1870351 112.337,16.3270351 111,15.8790351" id="Fill-582" fill="#163044" sketch:type="MSShapeGroup"></path>
        <path d="M118,15.860707 C118.541,14.779707 119.028,13.665707 119.646,12.626707 C120.09,11.869707 120.661,11.174707 121.259,10.524707 C121.817,9.91870696 122.581,9.86670696 123.436,10.219707 C122.732,11.301707 122.014,12.374707 121.338,13.478707 C121.082,13.895707 120.904,14.371707 120.746,14.837707 C120.269,16.249707 119.396,16.604707 118,15.860707" id="Fill-583" fill="#163044" sketch:type="MSShapeGroup"></path>
        <path d="M121,15.996 C121.358,15.184 121.667,14.418 122.03,13.679 C122.635,12.452 123.265,11.188 124.38,10.374 C124.861,10.018 125.689,10.13 126.579,10 C125.998,10.925 125.551,11.602 125.14,12.3 C124.807,12.86 124.493,13.438 124.204,14.028 C123.935,14.578 123.784,15.187 123.465,15.703 C123.062,16.352 122.083,16.442 121,15.996" id="Fill-584" fill="#163044" sketch:type="MSShapeGroup"></path>
        <path d="M115,15.973 C115.35,15.125 115.582,14.282 116.016,13.562 C116.722,12.406 117.458,11.235 118.39,10.273 C118.748,9.903 119.678,10.084 120.511,10 C119.671,11.306 118.956,12.378 118.286,13.476 C118.028,13.895 117.833,14.363 117.667,14.829 C117.164,16.282 116.61,16.545 115,15.973" id="Fill-585" fill="#163044" sketch:type="MSShapeGroup"></path>
        <path d="M125,15.8790351 C125.772,14.3160351 126.465,12.8190351 127.247,11.3690351 C127.904,10.1510351 129.038,9.75703513 130.424,10.1420351 C130.004,10.8280351 129.579,11.5070351 129.173,12.1980351 C128.845,12.7580351 128.513,13.3220351 128.235,13.9070351 C127.983,14.4300351 127.851,15.0150351 127.579,15.5250351 C127.222,16.1870351 126.338,16.3270351 125,15.8790351" id="Fill-586" fill="#163044" sketch:type="MSShapeGroup"></path>
        <path d="M131,15.860707 C131.543,14.779707 132.03,13.665707 132.647,12.626707 C133.093,11.869707 133.664,11.174707 134.261,10.524707 C134.82,9.91870696 135.585,9.86670696 136.434,10.219707 C135.734,11.301707 135.015,12.374707 134.341,13.478707 C134.086,13.895707 133.907,14.371707 133.749,14.837707 C133.269,16.249707 132.401,16.604707 131,15.860707" id="Fill-587" fill="#163044" sketch:type="MSShapeGroup"></path>
        <path d="M135,15.996 C135.357,15.184 135.662,14.418 136.029,13.679 C136.635,12.452 137.267,11.188 138.379,10.374 C138.864,10.018 139.69,10.13 140.573,10 C139.997,10.925 139.553,11.602 139.139,12.3 C138.807,12.86 138.49,13.438 138.203,14.028 C137.934,14.578 137.782,15.187 137.462,15.703 C137.062,16.352 136.08,16.442 135,15.996" id="Fill-588" fill="#163044" sketch:type="MSShapeGroup"></path>
        <path d="M128,15.973 C128.35,15.125 128.582,14.282 129.019,13.562 C129.723,12.406 130.458,11.235 131.386,10.273 C131.749,9.903 132.678,10.084 133.512,10 C132.672,11.306 131.956,12.378 131.285,13.476 C131.027,13.895 130.83,14.363 130.669,14.829 C130.162,16.282 129.608,16.545 128,15.973" id="Fill-589" fill="#163044" sketch:type="MSShapeGroup"></path>
        <path d="M138,15.8790351 C138.773,14.3160351 139.465,12.8190351 140.249,11.3690351 C140.908,10.1510351 142.038,9.75703513 143.422,10.1420351 C143.01,10.8280351 142.581,11.5070351 142.175,12.1980351 C141.846,12.7580351 141.515,13.3220351 141.236,13.9070351 C140.984,14.4300351 140.854,15.0150351 140.58,15.5250351 C140.224,16.1870351 139.342,16.3270351 138,15.8790351" id="Fill-590" fill="#163044" sketch:type="MSShapeGroup"></path>
        <path d="M145,15.860707 C145.541,14.779707 146.029,13.665707 146.644,12.626707 C147.092,11.869707 147.661,11.174707 148.259,10.524707 C148.819,9.91870696 149.581,9.86670696 150.432,10.219707 C149.734,11.301707 149.017,12.374707 148.341,13.478707 C148.082,13.895707 147.902,14.371707 147.744,14.837707 C147.269,16.249707 146.398,16.604707 145,15.860707" id="Fill-591" fill="#163044" sketch:type="MSShapeGroup"></path>
        <path d="M148,15.996 C148.352,15.184 148.66,14.418 149.026,13.679 C149.631,12.452 150.261,11.188 151.378,10.374 C151.859,10.018 152.687,10.13 153.573,10 C152.993,10.925 152.549,11.602 152.138,12.3 C151.802,12.86 151.49,13.438 151.201,14.028 C150.933,14.578 150.779,15.187 150.459,15.703 C150.06,16.352 149.079,16.442 148,15.996" id="Fill-592" fill="#163044" sketch:type="MSShapeGroup"></path>
        <path d="M141,15.973 C141.35,15.125 141.582,14.282 142.019,13.562 C142.722,12.406 143.459,11.235 144.39,10.273 C144.752,9.903 145.679,10.084 146.511,10 C145.672,11.306 144.958,12.378 144.286,13.476 C144.028,13.895 143.831,14.363 143.669,14.829 C143.164,16.282 142.609,16.545 141,15.973" id="Fill-593" fill="#163044" sketch:type="MSShapeGroup"></path>
        <path d="M154,15.860707 C154.541,14.779707 155.027,13.665707 155.647,12.626707 C156.09,11.869707 156.66,11.174707 157.258,10.524707 C157.818,9.91870696 158.58,9.86670696 159.432,10.219707 C158.73,11.301707 158.013,12.374707 157.337,13.478707 C157.081,13.895707 156.903,14.371707 156.745,14.837707 C156.268,16.249707 155.398,16.604707 154,15.860707" id="Fill-594" fill="#163044" sketch:type="MSShapeGroup"></path>
        <path d="M158,15.996 C158.357,15.184 158.665,14.418 159.028,13.679 C159.634,12.452 160.264,11.188 161.378,10.374 C161.862,10.018 162.689,10.13 163.574,10 C162.997,10.925 162.554,11.602 162.141,12.3 C161.807,12.86 161.492,13.438 161.204,14.028 C160.935,14.578 160.782,15.187 160.464,15.703 C160.061,16.352 159.083,16.442 158,15.996" id="Fill-595" fill="#163044" sketch:type="MSShapeGroup"></path>
        <path d="M151,15.973 C151.353,15.125 151.585,14.282 152.021,13.562 C152.723,12.406 153.462,11.235 154.391,10.273 C154.752,9.903 155.681,10.084 156.514,10 C155.676,11.306 154.959,12.378 154.289,13.476 C154.028,13.895 153.831,14.363 153.673,14.829 C153.166,16.282 152.609,16.545 151,15.973" id="Fill-596" fill="#163044" sketch:type="MSShapeGroup"></path>
        <path d="M63.376,10.0191394 C62.606,11.4371394 61.887,12.7221394 61.203,14.0241394 C60.946,14.5151394 60.829,15.0851394 60.533,15.5481394 C60.105,16.2251394 59.199,16.3301394 58,15.9191394 C58.822,13.9221394 59.586,11.9251394 61.256,10.4131394 C61.978,9.75913943 62.692,10.0981394 63.376,10.0191394" id="Fill-597" fill="#163044" sketch:type="MSShapeGroup"></path>
        <path d="M65,15.9491923 C65.368,15.0211923 65.602,14.0791923 66.082,13.2921923 C66.757,12.1901923 67.515,11.0961923 68.443,10.2131923 C68.817,9.85619227 69.733,10.0671923 70.41,10.0171923 C69.449,11.6541923 68.576,13.1141923 67.737,14.5961923 C67.568,14.8981923 67.621,15.3371923 67.424,15.6031923 C66.924,16.2801923 66.112,16.3701923 65,15.9491923" id="Fill-598" fill="#163044" sketch:type="MSShapeGroup"></path>
        <path d="M67.408,10 C66.444,11.646 65.571,13.111 64.733,14.599 C64.565,14.899 64.625,15.34 64.429,15.61 C63.925,16.302 62.931,16.39 62,15.91 C62.354,15.01 62.596,14.042 63.093,13.229 C63.753,12.15 64.51,11.082 65.429,10.228 C65.818,9.868 66.723,10.061 67.408,10" id="Fill-599" fill="#163044" sketch:type="MSShapeGroup"></path>
        <path d="M73.53,10.101353 C72.113,11.730353 71.204,13.416353 70.661,15.318353 C70.494,15.903353 69.939,16.255353 69.232,16.162353 C68.846,16.113353 68.456,16.101353 68,16.067353 C68.841,13.931353 69.636,11.916353 71.31,10.385353 C72.005,9.75235295 72.681,10.086353 73.53,10.101353" id="Fill-600" fill="#163044" sketch:type="MSShapeGroup"></path>
        <path d="M75,16.0690351 C75.285,15.2350351 75.454,14.5360351 75.755,13.8980351 C76.233,12.8910351 76.831,11.9400351 77.325,10.9350351 C77.868,9.82403512 78.484,9.68503512 79.261,10.6150351 C79.421,10.8040351 79.511,11.2860351 79.39,11.4420351 C78.46,12.6060351 78.283,14.0550351 77.769,15.3780351 C77.655,15.6630351 77.304,15.9880351 77.017,16.0370351 C76.424,16.1390351 75.801,16.0690351 75,16.0690351" id="Fill-601" fill="#163044" sketch:type="MSShapeGroup"></path>
        <path d="M95,16.0773143 C95.282,15.1663143 95.427,14.3493143 95.786,13.6453143 C96.324,12.5953143 96.959,11.5843143 97.658,10.6323143 C98.287,9.78431429 99.223,9.99231429 100.106,10.1163143 C99.412,11.2623143 98.724,12.3403143 98.098,13.4513143 C97.81,13.9663143 97.475,14.5413143 97.454,15.1003143 C97.417,16.1573143 96.809,16.2073143 96.048,16.1613143 C95.801,16.1483143 95.56,16.1243143 95,16.0773143" id="Fill-602" fill="#163044" sketch:type="MSShapeGroup"></path>
        <path d="M76.824327,10.0961634 C76.851327,10.2171634 76.895327,10.2941634 76.873327,10.3341634 C76.190327,11.6161634 75.482327,12.8901634 74.817327,14.1831634 C74.554327,14.6961634 74.515327,15.4801634 74.117327,15.7371634 C73.614327,16.0561634 72.850327,15.9661634 72.193327,16.0051634 C72.140327,16.0111634 71.959327,15.6281634 72.008327,15.4901634 C72.318327,14.6671634 72.595327,13.8121634 73.042327,13.0611634 C73.571327,12.1721634 74.247327,11.3701634 74.873327,10.5421634 C75.406327,9.83416336 76.123327,9.98216336 76.824327,10.0961634" id="Fill-603" fill="#163044" sketch:type="MSShapeGroup"></path>
        <path d="M46.376,10.0191394 C45.603,11.4371394 44.889,12.7221394 44.205,14.0241394 C43.949,14.5151394 43.831,15.0851394 43.533,15.5481394 C43.108,16.2251394 42.203,16.3301394 41,15.9191394 C41.824,13.9221394 42.588,11.9251394 44.258,10.4131394 C44.978,9.75913943 45.696,10.0981394 46.376,10.0191394" id="Fill-604" fill="#163044" sketch:type="MSShapeGroup"></path>
        <path d="M48,15.9491923 C48.367,15.0211923 48.597,14.0791923 49.081,13.2921923 C49.754,12.1901923 50.514,11.0961923 51.438,10.2131923 C51.815,9.85619227 52.729,10.0671923 53.413,10.0171923 C52.448,11.6541923 51.575,13.1141923 50.736,14.5961923 C50.564,14.8981923 50.619,15.3371923 50.422,15.6031923 C49.923,16.2801923 49.112,16.3701923 48,15.9491923" id="Fill-605" fill="#163044" sketch:type="MSShapeGroup"></path>
        <path d="M50.406,10 C49.444,11.646 48.571,13.111 47.735,14.599 C47.564,14.899 47.626,15.34 47.431,15.61 C46.928,16.302 45.934,16.39 45,15.91 C45.36,15.01 45.598,14.042 46.091,13.229 C46.753,12.15 47.51,11.082 48.429,10.228 C48.82,9.868 49.724,10.061 50.406,10" id="Fill-606" fill="#163044" sketch:type="MSShapeGroup"></path>
        <path d="M56.531,10.101353 C55.116,11.730353 54.205,13.416353 53.661,15.318353 C53.491,15.903353 52.941,16.255353 52.234,16.162353 C51.847,16.113353 51.455,16.101353 51,16.067353 C51.838,13.931353 52.637,11.916353 54.312,10.385353 C55.002,9.75235295 55.686,10.086353 56.531,10.101353" id="Fill-607" fill="#163044" sketch:type="MSShapeGroup"></path>
        <path d="M59.8208901,10.0961634 C59.8508901,10.2171634 59.8948901,10.2941634 59.8708901,10.3341634 C59.1878901,11.6161634 58.4838901,12.8901634 57.8178901,14.1831634 C57.5528901,14.6961634 57.5158901,15.4801634 57.1148901,15.7371634 C56.6158901,16.0561634 55.8498901,15.9661634 55.1968901,16.0051634 C55.1378901,16.0111634 54.9558901,15.6281634 55.0098901,15.4901634 C55.3178901,14.6671634 55.5978901,13.8121634 56.0428901,13.0611634 C56.5678901,12.1721634 57.2488901,11.3701634 57.8708901,10.5421634 C58.4048901,9.83416336 59.1208901,9.98216336 59.8208901,10.0961634" id="Fill-608" fill="#163044" sketch:type="MSShapeGroup"></path>
        <path d="M30.376,10.0191394 C29.605,11.4371394 28.889,12.7221394 28.204,14.0241394 C27.947,14.5151394 27.827,15.0851394 27.531,15.5481394 C27.106,16.2251394 26.202,16.3301394 25,15.9191394 C25.818,13.9221394 26.585,11.9251394 28.257,10.4131394 C28.978,9.75913943 29.691,10.0981394 30.376,10.0191394" id="Fill-609" fill="#163044" sketch:type="MSShapeGroup"></path>
        <path d="M31,15.9491923 C31.364,15.0211923 31.598,14.0791923 32.078,13.2921923 C32.754,12.1901923 33.513,11.0961923 34.439,10.2131923 C34.817,9.85619227 35.731,10.0671923 36.409,10.0171923 C35.446,11.6541923 34.574,13.1141923 33.735,14.5961923 C33.565,14.8981923 33.619,15.3371923 33.42,15.6031923 C32.921,16.2801923 32.112,16.3701923 31,15.9491923" id="Fill-610" fill="#163044" sketch:type="MSShapeGroup"></path>
        <path d="M33.404,10 C32.441,11.646 31.569,13.111 30.734,14.599 C30.563,14.899 30.622,15.34 30.428,15.61 C29.923,16.302 28.929,16.39 28,15.91 C28.352,15.01 28.593,14.042 29.088,13.229 C29.75,12.15 30.507,11.082 31.424,10.228 C31.817,9.868 32.72,10.061 33.404,10" id="Fill-611" fill="#163044" sketch:type="MSShapeGroup"></path>
        <path d="M40.526,10.101353 C39.113,11.730353 38.204,13.416353 37.659,15.318353 C37.492,15.903353 36.938,16.255353 36.23,16.162353 C35.845,16.113353 35.453,16.101353 35,16.067353 C35.837,13.931353 36.636,11.916353 38.31,10.385353 C39,9.75235295 39.681,10.086353 40.526,10.101353" id="Fill-612" fill="#163044" sketch:type="MSShapeGroup"></path>
        <path d="M42.8231557,10.0961634 C42.8501557,10.2171634 42.8951557,10.2941634 42.8741557,10.3341634 C42.1891557,11.6161634 41.4831557,12.8901634 40.8211557,14.1831634 C40.5531557,14.6961634 40.5171557,15.4801634 40.1171557,15.7371634 C39.6171557,16.0561634 38.8491557,15.9661634 38.1971557,16.0051634 C38.1371557,16.0111634 37.9601557,15.6281634 38.0081557,15.4901634 C38.3181557,14.6671634 38.5971557,13.8121634 39.0431557,13.0611634 C39.5711557,12.1721634 40.2481557,11.3701634 40.8701557,10.5421634 C41.4071557,9.83416336 42.1211557,9.98216336 42.8231557,10.0961634" id="Fill-613" fill="#163044" sketch:type="MSShapeGroup"></path>
        <path d="M13.376,10.0191394 C12.605,11.4371394 11.887,12.7221394 11.206,14.0241394 C10.95,14.5151394 10.828,15.0851394 10.534,15.5481394 C10.107,16.2251394 9.202,16.3301394 8,15.9191394 C8.821,13.9221394 9.588,11.9251394 11.259,10.4131394 C11.978,9.75913943 12.696,10.0981394 13.376,10.0191394" id="Fill-614" fill="#163044" sketch:type="MSShapeGroup"></path>
        <path d="M14,15.9491923 C14.365,15.0211923 14.6,14.0791923 15.083,13.2921923 C15.755,12.1901923 16.513,11.0961923 17.441,10.2131923 C17.817,9.85619227 18.731,10.0671923 19.411,10.0171923 C18.449,11.6541923 17.576,13.1141923 16.738,14.5961923 C16.568,14.8981923 16.62,15.3371923 16.426,15.6031923 C15.923,16.2801923 15.117,16.3701923 14,15.9491923" id="Fill-615" fill="#163044" sketch:type="MSShapeGroup"></path>
        <path d="M16.401,10 C15.443,11.646 14.568,13.111 13.734,14.599 C13.563,14.899 13.624,15.34 13.427,15.61 C12.926,16.302 11.929,16.39 11,15.91 C11.354,15.01 11.594,14.042 12.089,13.229 C12.749,12.15 13.512,11.082 14.427,10.228 C14.817,9.868 15.719,10.061 16.401,10" id="Fill-616" fill="#163044" sketch:type="MSShapeGroup"></path>
        <path d="M23.532,10.101353 C22.116,11.730353 21.207,13.416353 20.664,15.318353 C20.495,15.903353 19.941,16.255353 19.233,16.162353 C18.849,16.113353 18.458,16.101353 18,16.067353 C18.843,13.931353 19.638,11.916353 21.313,10.385353 C22.004,9.75235295 22.687,10.086353 23.532,10.101353" id="Fill-617" fill="#163044" sketch:type="MSShapeGroup"></path>
        <path d="M25.822915,10.0961634 C25.851915,10.2171634 25.894915,10.2941634 25.873915,10.3341634 C25.187915,11.6161634 24.484915,12.8901634 23.815915,14.1831634 C23.553915,14.6961634 23.515915,15.4801634 23.116915,15.7371634 C22.615915,16.0561634 21.849915,15.9661634 21.195915,16.0051634 C21.139915,16.0111634 20.957915,15.6281634 21.008915,15.4901634 C21.319915,14.6671634 21.596915,13.8121634 22.044915,13.0611634 C22.570915,12.1721634 23.249915,11.3701634 23.871915,10.5421634 C24.409915,9.83416336 25.122915,9.98216336 25.822915,10.0961634" id="Fill-618" fill="#163044" sketch:type="MSShapeGroup"></path>
        <path d="M94.54,14.6927314 C93.614,13.7127314 92.808,12.7937314 91.926,11.9487314 C91.59,11.6207314 91.045,11.5177314 90.675,11.2147314 C90.4,10.9897314 90.256,10.6127314 90,10.2217314 C91.594,9.75073137 92.91,10.0587314 93.914,10.8747314 C95.165,11.8947314 94.502,13.3977314 94.54,14.6927314" id="Fill-619" fill="#163044" sketch:type="MSShapeGroup"></path>
        <path d="M79.0845248,16.3067645 C78.6735248,14.6137645 79.8745248,13.4387645 80.2605248,12.0387645 C81.7035248,11.9017645 81.9175248,12.0747645 81.7955248,13.4317645 C81.7385248,14.0817645 81.6755248,14.7867645 81.3855248,15.3517645 C80.7535248,16.5837645 80.6015248,16.5887645 79.0845248,16.3067645" id="Fill-620" fill="#163044" sketch:type="MSShapeGroup"></path>
        <path d="M87.869,16 C88.544,18.13 87.509,19.268 86.222,20.29 C85.604,20.782 83.906,20.319 83,19.428 C84.566,19.53 85.363,18.485 86.277,17.647 C86.807,17.159 87.281,16.609 87.869,16" id="Fill-621" fill="#163044" sketch:type="MSShapeGroup"></path>
        <path d="M89.483,15 C90.533,16.611 90.544,18.258 89.52,19.832 C89.045,20.561 88.002,20.677 87,20.323 C88.164,19.068 88.77,17.635 88.539,15.887 C88.441,15.136 88.651,15.004 89.483,15" id="Fill-622" fill="#163044" sketch:type="MSShapeGroup"></path>
        <path d="M90.982,19.046 C91.837,17.738 91.274,15.449 90,14.378 C90.214,13.931 90.427,13.488 90.663,13 C91.922,14.149 93.584,15.132 93.013,17.115 C92.81,17.825 92.464,19.08 90.982,19.046" id="Fill-623" fill="#163044" sketch:type="MSShapeGroup"></path>
        <path d="M80.024694,18.056 C79.908694,17.455 80.208694,17.165 80.770694,17.174 C82.077694,17.192 83.262694,16.881 84.343694,16.108 C84.586694,15.931 85.028694,16.036 85.515694,16 C85.361694,17.526 84.253694,17.891 83.290694,18.484 C82.021694,19.267 81.085694,18.46 80.024694,18.056" id="Fill-624" fill="#163044" sketch:type="MSShapeGroup"></path>
        <path d="M81.2112744,10.9512403 C80.6222744,9.20024027 81.2982744,7.73524027 82.8222744,6.96524027 C83.6062744,6.56624027 84.4552744,6.27324027 85.2972744,6.00524027 C85.4512744,5.95724027 85.7102744,6.25124027 85.9202744,6.38724027 C85.7412744,6.59424027 85.6022744,6.88524027 85.3762744,6.99624027 C83.9742744,7.69224027 82.7062744,8.51224027 82.0042744,10.0072403 C81.8492744,10.3352403 81.5222744,10.5852403 81.2112744,10.9512403" id="Fill-625" fill="#163044" sketch:type="MSShapeGroup"></path>
        <path d="M94.542,9.82607217 C92.926,9.50307217 91.541,8.00007217 89.843,9.15207217 C89.543,8.68707217 89.272,8.26907217 89,7.85307217 C91.517,6.41507217 93.189,6.62007217 94.542,9.82607217" id="Fill-626" fill="#163044" sketch:type="MSShapeGroup"></path>
        <path d="M98.18068,0.36059492 C96.85268,1.62059492 95.52568,2.87559492 94.20968,4.12459492 C93.79868,3.63959492 94.00168,1.73159492 94.73268,0.83059492 C95.48068,-0.0944050797 96.78468,-0.24040508 98.18068,0.36059492" id="Fill-627" fill="#163044" sketch:type="MSShapeGroup"></path>
        <path d="M77.7073849,24.593 C77.5533849,24.307 77.1833849,23.866 77.0733849,23.374 C76.7273849,21.841 77.6323849,20.681 79.2083849,20.395 C79.7533849,20.299 80.2603849,20.02 80.8503849,20 C79.7983849,21.54 78.7413849,23.081 77.7073849,24.593" id="Fill-628" fill="#163044" sketch:type="MSShapeGroup"></path>
        <path d="M96,4.74802016 C96.059,3.37202016 98.834,0.943020159 100.219,1.00102016 C100.526,2.27602016 97.614,4.91202016 96,4.74802016" id="Fill-629" fill="#163044" sketch:type="MSShapeGroup"></path>
        <path d="M84.148238,13.0775718 C83.764238,12.3065718 84.168238,11.6365718 84.878238,11.0945718 C85.805238,10.3825718 86.732238,9.66157183 87.731238,9.06257183 C88.023238,8.89057183 88.555238,9.12257183 88.974238,9.17057183 C88.742238,9.43357183 88.536238,9.72657183 88.269238,9.94857183 C87.240238,10.7985718 86.202238,11.6295718 85.151238,12.4485718 C84.851238,12.6815718 84.507238,12.8535718 84.148238,13.0775718" id="Fill-630" fill="#163044" sketch:type="MSShapeGroup"></path>
        <path d="M91.5461177,5.89175229 C91.0481177,6.12075229 90.6701177,6.32775229 90.2661177,6.47875229 C89.5841177,6.73675229 88.8991177,7.00775229 88.1951177,7.18775229 C87.5361177,7.35375229 87.1201177,7.01375229 87.0091177,6.34975229 C86.9191177,5.77175229 87.5081177,5.16675229 88.2141177,5.05075229 C89.4021177,4.85775229 90.4301177,5.23175229 91.5461177,5.89175229" id="Fill-632" fill="#163044" sketch:type="MSShapeGroup"></path>
        <path d="M87.321,8.34026393 C85.311,8.83926393 84.127,10.2472639 82.815,11.4842639 C82.603,11.6822639 82.307,11.7892639 82,11.8412639 C82.873,8.95026393 85.828,7.23026393 87.321,8.34026393" id="Fill-633" fill="#163044" sketch:type="MSShapeGroup"></path>
        <path d="M83.3853852,6.02011154 C81.5013852,7.19911154 80.0583852,8.71311154 79.2623852,10.8091115 C78.5623852,9.26511154 79.3933852,8.09211154 80.2283852,7.12411154 C80.9583852,6.27711154 82.1183852,5.90611154 83.3853852,6.02011154" id="Fill-634" fill="#163044" sketch:type="MSShapeGroup"></path>
        <path d="M94.5407669,0 C94.3637669,1.502 94.1547669,2.676 94.1227669,3.857 C94.1087669,4.454 93.9537669,4.846 93.4887669,5.153 C93.4457669,5.183 93.3697669,5.159 93.1047669,5.159 C93.2547669,3.666 92.5247669,2.123 93.5977669,0.721 C93.8047669,0.45 94.1507669,0.287 94.5407669,0" id="Fill-635" fill="#163044" sketch:type="MSShapeGroup"></path>
        <path d="M91.051863,4.77749785 C90.051863,4.80849785 89.985863,4.70849785 90.001863,3.10549785 C90.016863,1.49249785 90.439863,0.937497853 91.621863,1.00549785 C91.432863,2.23449785 91.244863,3.46649785 91.051863,4.77749785" id="Fill-636" fill="#163044" sketch:type="MSShapeGroup"></path>
        <path d="M87.633,4.30633023 C87.096,4.68433023 86.605,5.01033023 86.138,5.37033023 C85.569,5.80633023 85.044,5.95133023 84.516,5.30233023 C84.398,5.15733023 84.178,5.09533023 84,4.99033023 C84.772,3.99133023 86.284,3.71933023 87.633,4.30633023" id="Fill-637" fill="#163044" sketch:type="MSShapeGroup"></path>
        <path d="M80.2819966,18.689 C79.1869966,19.304 78.1609966,19.883 77.1409966,20.459 C76.8809966,19.984 76.9259966,19.706 77.7449966,19.014 C78.2239966,18.611 78.8249966,18.348 79.4119966,18 C79.6879966,18.216 79.9759966,18.445 80.2819966,18.689" id="Fill-638" fill="#163044" sketch:type="MSShapeGroup"></path>
        <path d="M82,15.918 C82.239,15.252 82.475,14.591 82.685,14 C83.266,14.517 83.726,14.934 84.264,15.41 C83.647,15.685 82.996,15.97 82.347,16.253 C82.231,16.143 82.116,16.031 82,15.918" id="Fill-639" fill="#163044" sketch:type="MSShapeGroup"></path>
        <path d="M88.675,11.327 C88.054,11.883 87.452,12.461 86.8,12.98 C86.599,13.138 86.273,13.135 86,13.208 C86.127,13.019 86.233,12.817 86.383,12.648 C86.798,12.186 87.196,11.698 87.67,11.302 C87.904,11.107 88.297,11.093 88.613,11 C88.637,11.108 88.656,11.219 88.675,11.327" id="Fill-640" fill="#163044" sketch:type="MSShapeGroup"></path>
        <path d="M95,10 L96.153,10 C95.851,10.546 95.601,11.008 95.347,11.47 L95.129,11.485 C95.092,11.022 95.052,10.555 95,10" id="Fill-641" fill="#163044" sketch:type="MSShapeGroup"></path>
        <path d="M78.190005,17.108025 C77.763005,17.498025 77.461005,17.770025 77.105005,18.094025 C76.850005,17.002025 77.004005,16.852025 78.190005,17.108025" id="Fill-642" fill="#163044" sketch:type="MSShapeGroup"></path>
        <path d="M170.735,12.867 C170.735,15.003 169.003,16.733 166.866,16.733 C164.733,16.733 163,15.003 163,12.867 C163,10.733 164.733,9 166.866,9 C169.003,9 170.735,10.733 170.735,12.867" id="Fill-643" fill="#163044" sketch:type="MSShapeGroup"></path>
        <path d="M7.734,12.867 C7.734,15.003 6.004,16.733 3.867,16.733 C1.732,16.733 0,15.003 0,12.867 C0,10.733 1.732,9 3.867,9 C6.004,9 7.734,10.733 7.734,12.867" id="Fill-644" fill="#163044" sketch:type="MSShapeGroup"></path>
    </g>
</svg>